<?xml version="1.0" encoding="UTF-8" standalone="no"?> <svg xmlns="http://www.w3.org/2000/svg" xmlns:xlink="http://www.w3.org/1999/xlink" xmlns:serif="http://www.serif.com/" width="100%" height="100%" viewBox="0 0 14 16" xml:space="preserve" style="fill-rule:evenodd;clip-rule:evenodd;stroke-linejoin:round;stroke-miterlimit:1.41421;"> <g transform="matrix(0.0897436,0,0,0.0897436,-0.987179,-0.255988)"> <path d="M11,49.399C11,51.024 11.843,52.538 13.212,53.414L78.487,95.171C79.268,95.671 80.221,95.923 81.116,95.923C81.902,95.923 82.688,95.729 83.402,95.338C84.931,94.501 86,92.898 86,91.156L86,54L113.227,54C138.477,54 157,74.406 157,101.246L157,175.229C157,177.862 159.368,179.996 162,179.996C164.632,179.996 167,177.862 167,175.229L167,101.246C167,86.009 161.677,72.023 151.967,61.532C141.99,50.753 128.248,45 113.227,45L86,45L86,7.647C86,5.905 84.931,4.302 83.403,3.466C81.876,2.629 79.834,2.693 78.366,3.633L13.152,45.385C11.783,46.261 11,47.774 11,49.399ZM24.364,49.4L76,16.356L76,82.446L24.364,49.4Z" style="fill:rgb(248,90,8);fill-rule:nonzero;"></path> </g> </svg> 