<?xml version="1.0" encoding="UTF-8" standalone="no"?> <svg xmlns="http://www.w3.org/2000/svg" xmlns:xlink="http://www.w3.org/1999/xlink" xmlns:serif="http://www.serif.com/" width="100%" height="100%" viewBox="0 0 7459 1105" xml:space="preserve" style="fill-rule:evenodd;clip-rule:evenodd;stroke-linejoin:bevel;stroke-miterlimit:1.41421;"> <g transform="matrix(1,0,0,1,20.8333,20.8333)"> <path d="M3530.14,1017.2L3452.19,1017.2L3514.25,666.277L3592.96,666.277L3590.44,679.647C3600.87,673.425 3612.47,668.253 3625.25,664.132C3638.04,660.012 3651.74,657.952 3666.38,657.952C3685.04,657.952 3701.74,660.979 3716.45,667.034C3731.17,673.088 3743.61,681.371 3753.79,691.883C3763.97,702.395 3771.7,714.756 3777,728.968C3782.3,743.18 3784.95,758.442 3784.95,774.757C3784.95,788.884 3783.14,802.717 3779.52,816.256C3775.91,829.795 3770.69,842.535 3763.88,854.477C3757.07,866.418 3748.79,877.392 3739.03,887.399C3729.28,897.406 3718.3,906.026 3706.11,913.257C3693.91,920.489 3680.59,926.124 3666.12,930.16C3651.66,934.197 3636.35,936.215 3620.21,936.215C3604.23,936.215 3590.4,934.028 3578.71,929.656C3567.02,925.283 3556.97,919.564 3548.56,912.501L3530.14,1017.2ZM142.957,135.971L110.415,122.954L110.415,1003.68L142.957,1016.69L142.957,135.971ZM305.673,83.9L240.586,122.954L240.586,977.638L305.673,938.588L305.673,83.9ZM844.048,947.158L667.511,947.158L667.511,51.358L844.048,51.358L844.048,326.363L1002.82,51.358L1211.69,51.358L1211.69,227.9L1104.75,227.9L948.078,499.258L1104.75,770.617L1211.69,770.617L1211.69,947.158L1002.82,947.158L844.048,672.154L844.048,947.158ZM3265.76,846.151C3265.42,850.02 3266.01,853.594 3267.52,856.873C3269.04,860.153 3271.39,862.97 3274.59,865.325C3277.78,867.679 3281.65,869.487 3286.19,870.749C3290.73,872.01 3295.86,872.641 3301.58,872.641C3317.89,872.641 3329.71,870.412 3337.03,865.955C3344.34,861.498 3348,855.486 3348,847.917C3348,844.217 3346.57,841.19 3343.71,838.835C3340.85,836.481 3336.65,834.42 3331.1,832.654C3325.55,830.889 3318.74,829.165 3310.66,827.483C3302.59,825.801 3293.42,823.783 3283.16,821.428C3276.44,820.083 3269.08,818.275 3261.09,816.004C3253.1,813.734 3245.66,810.244 3238.76,805.535C3231.87,800.825 3226.11,794.644 3221.48,786.992C3216.86,779.34 3214.54,769.459 3214.54,757.349C3214.54,742.381 3217.28,728.758 3222.74,716.48C3228.21,704.203 3236.45,693.733 3247.47,685.071C3258.48,676.41 3272.4,669.725 3289.22,665.015C3306.04,660.306 3325.8,657.952 3348.5,657.952C3364.82,657.952 3379.16,660.054 3391.52,664.258C3403.88,668.463 3413.97,674.434 3421.79,682.17C3429.61,689.907 3435.03,699.115 3438.06,709.795C3441.09,720.475 3441.51,732.206 3439.32,744.988L3360.87,744.735C3361.54,738.344 3359.48,732.836 3354.68,728.211C3349.89,723.586 3342.53,721.273 3332.61,721.273C3326.05,721.273 3320.38,721.946 3315.58,723.292C3310.79,724.637 3306.75,726.445 3303.47,728.716C3300.19,730.986 3297.75,733.551 3296.16,736.41C3294.56,739.269 3293.76,742.213 3293.76,745.24C3293.76,751.126 3297.54,755.289 3305.11,757.728C3312.68,760.166 3324.62,762.563 3340.93,764.918C3352.88,767.104 3364.31,769.669 3375.24,772.612C3386.18,775.555 3395.81,779.508 3404.13,784.469C3412.46,789.431 3419.06,795.738 3423.93,803.39C3428.81,811.043 3431.25,820.755 3431.25,832.528C3431.25,850.02 3427.64,865.283 3420.4,878.317C3413.17,891.351 3403.21,902.199 3390.51,910.861C3377.81,919.522 3362.72,925.998 3345.22,930.286C3327.73,934.575 3308.73,936.719 3288.21,936.719C3268.03,936.719 3251.17,934.028 3237.63,928.646C3224.09,923.265 3213.41,916.243 3205.59,907.581C3197.77,898.92 3192.6,889.165 3190.07,878.317C3187.55,867.469 3187.21,856.663 3189.06,845.899L3265.76,846.151ZM6111.96,846.151C6111.63,850.02 6112.22,853.594 6113.73,856.873C6115.24,860.153 6117.6,862.97 6120.79,865.325C6123.99,867.679 6127.86,869.487 6132.4,870.749C6136.94,872.01 6142.07,872.641 6147.79,872.641C6164.1,872.641 6175.92,870.412 6183.23,865.955C6190.55,861.498 6194.21,855.486 6194.21,847.917C6194.21,844.217 6192.78,841.19 6189.92,838.835C6187.06,836.481 6182.85,834.42 6177.3,832.654C6171.75,830.889 6164.94,829.165 6156.87,827.483C6148.8,825.801 6139.63,823.783 6129.37,821.428C6122.64,820.083 6115.29,818.275 6107.3,816.004C6099.31,813.734 6091.87,810.244 6084.97,805.535C6078.07,800.825 6072.31,794.644 6067.69,786.992C6063.06,779.34 6060.75,769.459 6060.75,757.349C6060.75,742.381 6063.48,728.758 6068.95,716.48C6074.42,704.203 6082.66,693.733 6093.67,685.071C6104.69,676.41 6118.61,669.725 6135.43,665.015C6152.24,660.306 6172.01,657.952 6194.71,657.952C6211.03,657.952 6225.36,660.054 6237.73,664.258C6250.09,668.463 6260.18,674.434 6268,682.17C6275.82,689.907 6281.24,699.115 6284.27,709.795C6287.3,720.475 6287.72,732.206 6285.53,744.988L6207.07,744.735C6207.75,738.344 6205.69,732.836 6200.89,728.211C6196.1,723.586 6188.74,721.273 6178.82,721.273C6172.26,721.273 6166.58,721.946 6161.79,723.292C6157,724.637 6152.96,726.445 6149.68,728.716C6146.4,730.986 6143.96,733.551 6142.36,736.41C6140.77,739.269 6139.97,742.213 6139.97,745.24C6139.97,751.126 6143.75,755.289 6151.32,757.728C6158.89,760.166 6170.83,762.563 6187.14,764.918C6199.08,767.104 6210.52,769.669 6221.45,772.612C6232.39,775.555 6242.01,779.508 6250.34,784.469C6258.66,789.431 6265.27,795.738 6270.14,803.39C6275.02,811.043 6277.46,820.755 6277.46,832.528C6277.46,850.02 6273.84,865.283 6266.61,878.317C6259.38,891.351 6249.41,902.199 6236.72,910.861C6224.02,919.522 6208.92,925.998 6191.43,930.286C6173.94,934.575 6154.94,936.719 6134.42,936.719C6114.23,936.719 6097.37,934.028 6083.84,928.646C6070.3,923.265 6059.62,916.243 6051.8,907.581C6043.98,898.92 6038.8,889.165 6036.28,878.317C6033.76,867.469 6033.42,856.663 6035.27,845.899L6111.96,846.151ZM7222.49,927.89L7143.78,927.89L7146.31,914.014C7135.71,920.742 7124.02,926.208 7111.24,930.412C7098.46,934.617 7084.84,936.719 7070.37,936.719C7051.53,936.719 7034.76,933.65 7020.04,927.511C7005.32,921.372 6992.88,913.005 6982.7,902.41C6972.53,891.814 6964.79,879.41 6959.49,865.198C6954.2,850.987 6951.55,835.724 6951.55,819.41C6951.55,798.05 6955.58,777.616 6963.66,758.106C6971.73,738.597 6983.04,721.4 6997.59,706.515C7012.14,691.631 7029.54,679.774 7049.81,670.944C7070.08,662.114 7092.32,657.699 7116.54,657.699C7132.35,657.699 7146.14,659.928 7157.91,664.385C7169.68,668.842 7179.69,674.602 7187.93,681.666L7207.36,572.429L7285.31,572.429L7222.49,927.89ZM1824.72,927.89L1739.18,927.89L1715.15,895.077C1693.87,908.358 1671.94,918.563 1649.38,925.692C1626.82,932.821 1605.19,936.386 1584.49,936.386C1566.33,936.386 1549.53,933.896 1534.1,928.915C1518.67,923.935 1505.34,916.952 1494.11,907.968C1482.88,898.983 1474.09,888.192 1467.74,875.595C1461.39,862.997 1458.22,848.983 1458.22,833.554C1458.22,815.585 1461.74,799.862 1468.77,786.386C1475.8,772.909 1484.88,760.995 1496.01,750.644C1507.15,740.292 1519.5,731.21 1533.07,723.397C1546.65,715.585 1559.98,708.358 1573.06,701.718C1568.96,697.616 1564.96,692.88 1561.05,687.509C1557.15,682.138 1553.63,676.278 1550.51,669.931C1547.38,663.583 1544.89,656.845 1543.04,649.716C1541.18,642.587 1540.25,635.214 1540.25,627.597C1540.25,611.776 1543.67,597.274 1550.51,584.091C1557.34,570.907 1566.67,559.579 1578.48,550.106C1590.3,540.634 1604.22,533.261 1620.23,527.987C1636.25,522.714 1653.43,520.077 1671.8,520.077C1687.03,520.077 1700.75,521.835 1712.96,525.351C1725.16,528.866 1735.56,534.042 1744.16,540.878C1752.75,547.714 1759.34,556.063 1763.93,565.927C1768.52,575.79 1770.82,586.972 1770.82,599.472C1770.82,613.534 1768.13,626.229 1762.76,637.558C1757.39,648.886 1750.16,659.14 1741.08,668.319C1732,677.499 1721.55,685.849 1709.73,693.368C1697.92,700.888 1685.66,707.87 1672.97,714.315L1735.95,803.378C1746.11,792.05 1754.85,780.038 1762.18,767.343C1769.5,754.647 1775.02,741.562 1778.73,728.085L1843.47,728.378C1838.01,752.011 1828.92,774.228 1816.23,795.028C1803.53,815.829 1788.3,834.823 1770.53,852.011L1824.72,927.89ZM4899.26,927.89L4825.85,927.89L4827.61,911.996C4816.85,918.892 4804.66,924.652 4791.03,929.277C4777.41,933.902 4762.78,936.215 4747.14,936.215C4728.3,936.215 4711.52,933.188 4696.81,927.133C4682.09,921.078 4669.65,912.795 4659.47,902.283C4649.29,891.772 4641.56,879.41 4636.26,865.198C4630.96,850.987 4628.31,835.724 4628.31,819.41C4628.31,805.114 4630.16,791.197 4633.86,777.658C4637.56,764.119 4642.9,751.379 4649.88,739.438C4656.86,727.496 4665.27,716.522 4675.11,706.515C4684.95,696.508 4696.05,687.931 4708.41,680.783C4720.77,673.635 4734.23,668.043 4748.78,664.006C4763.32,659.97 4778.67,657.952 4794.82,657.952C4811.3,657.952 4825.68,660.474 4837.96,665.52C4850.23,670.565 4860.58,676.704 4868.99,683.936L4873.78,666.277L4945.43,666.277L4899.26,927.89ZM2782.89,927.89L2709.48,927.89L2711.25,911.996C2700.48,918.892 2688.29,924.652 2674.67,929.277C2661.04,933.902 2646.41,936.215 2630.77,936.215C2611.93,936.215 2595.16,933.188 2580.44,927.133C2565.72,921.078 2553.28,912.795 2543.1,902.283C2532.93,891.772 2525.19,879.41 2519.89,865.198C2514.6,850.987 2511.95,835.724 2511.95,819.41C2511.95,805.114 2513.8,791.197 2517.5,777.658C2521.2,764.119 2526.54,751.379 2533.52,739.438C2540.5,727.496 2548.91,716.522 2558.74,706.515C2568.58,696.508 2579.68,687.931 2592.05,680.783C2604.41,673.635 2617.86,668.043 2632.41,664.006C2646.96,659.97 2662.31,657.952 2678.45,657.952C2694.93,657.952 2709.31,660.474 2721.59,665.52C2733.87,670.565 2744.21,676.704 2752.62,683.936L2757.41,666.277L2829.06,666.277L2782.89,927.89ZM3828.09,817.644C3828.09,803.516 3830.1,789.725 3834.14,776.27C3838.18,762.815 3843.89,750.159 3851.3,738.302C3858.7,726.445 3867.57,715.597 3877.91,705.758C3888.25,695.919 3899.78,687.468 3912.47,680.404C3925.17,673.34 3938.84,667.832 3953.47,663.88C3968.1,659.928 3983.41,657.952 3999.38,657.952C4018.56,657.952 4035.88,661.063 4051.35,667.286C4066.83,673.509 4079.94,681.96 4090.71,692.64C4101.47,703.32 4109.76,715.891 4115.56,730.355C4121.36,744.819 4124.26,760.293 4124.26,776.775C4124.26,791.071 4122.24,804.946 4118.21,818.401C4114.17,831.856 4108.45,844.512 4101.05,856.369C4093.65,868.226 4084.74,879.032 4074.31,888.786C4063.88,898.541 4052.28,906.951 4039.49,914.014C4026.71,921.078 4012.88,926.544 3997.99,930.412C3983.11,934.281 3967.6,936.215 3951.45,936.215C3932.61,936.215 3915.58,933.145 3900.36,927.007C3885.14,920.868 3872.19,912.459 3861.51,901.779C3850.83,891.099 3842.59,878.527 3836.79,864.063C3830.99,849.599 3828.09,834.126 3828.09,817.644ZM5374.81,817.644C5374.81,803.516 5376.82,789.725 5380.86,776.27C5384.9,762.815 5390.61,750.159 5398.02,738.302C5405.42,726.445 5414.29,715.597 5424.63,705.758C5434.97,695.919 5446.49,687.468 5459.19,680.404C5471.89,673.34 5485.56,667.832 5500.19,663.88C5514.82,659.928 5530.12,657.952 5546.1,657.952C5565.28,657.952 5582.6,661.063 5598.07,667.286C5613.55,673.509 5626.66,681.96 5637.43,692.64C5648.19,703.32 5656.48,715.891 5662.28,730.355C5668.08,744.819 5670.98,760.293 5670.98,776.775C5670.98,791.071 5668.96,804.946 5664.93,818.401C5660.89,831.856 5655.17,844.512 5647.77,856.369C5640.37,868.226 5631.46,879.032 5621.03,888.786C5610.6,898.541 5599,906.951 5586.22,914.014C5573.43,921.078 5559.6,926.544 5544.72,930.412C5529.83,934.281 5514.32,936.215 5498.17,936.215C5479.33,936.215 5462.3,933.145 5447.08,927.007C5431.86,920.868 5418.91,912.459 5408.23,901.779C5397.55,891.099 5389.31,878.527 5383.51,864.063C5377.71,849.599 5374.81,834.126 5374.81,817.644ZM7298.68,905.185C7298.68,899.971 7299.78,894.967 7301.96,890.174C7304.15,885.381 7307.13,881.176 7310.92,877.56C7314.7,873.944 7319.16,871.043 7324.29,868.856C7329.42,866.67 7335.01,865.577 7341.07,865.577C7345.78,865.577 7350.02,866.376 7353.81,867.973C7357.59,869.571 7360.78,871.674 7363.39,874.28C7366,876.887 7367.98,879.999 7369.32,883.615C7370.67,887.231 7371.34,891.057 7371.34,895.093C7371.34,900.307 7370.25,905.269 7368.06,909.978C7365.87,914.687 7362.89,918.85 7359.1,922.466C7355.32,926.082 7350.86,928.941 7345.73,931.043C7340.6,933.145 7335.01,934.197 7328.96,934.197C7324.08,934.197 7319.79,933.44 7316.09,931.926C7312.39,930.412 7309.24,928.31 7306.63,925.619C7304.02,922.928 7302.05,919.859 7300.7,916.411C7299.36,912.963 7298.68,909.221 7298.68,905.185ZM4527.91,666.277L4603.59,666.277L4591.98,733.131L4516.05,733.131L4499.9,824.96C4498.39,833.033 4498.1,839.718 4499.02,845.016C4499.95,850.314 4501.8,854.519 4504.57,857.63C4507.35,860.741 4510.92,862.886 4515.29,864.063C4519.66,865.24 4524.46,865.829 4529.67,865.829L4573.32,865.829L4561.71,929.656L4511,929.656C4496.37,929.656 4482.75,928.352 4470.14,925.745C4457.52,923.138 4447.01,918.093 4438.6,910.609C4430.19,903.124 4424.35,892.613 4421.07,879.074C4417.79,865.535 4418.08,847.749 4421.95,825.717L4438.35,733.131L4396.72,733.131L4407.32,673.593L4449.45,658.456L4484.51,594.125L4540.52,593.62L4527.91,666.277ZM5115.97,666.277L5191.65,666.277L5180.05,733.131L5104.11,733.131L5087.97,824.96C5086.45,833.033 5086.16,839.718 5087.08,845.016C5088.01,850.314 5089.86,854.519 5092.63,857.63C5095.41,860.741 5098.98,862.886 5103.35,864.063C5107.73,865.24 5112.52,865.829 5117.73,865.829L5161.38,865.829L5149.77,929.656L5099.07,929.656C5084.43,929.656 5070.81,928.352 5058.2,925.745C5045.58,923.138 5035.07,918.093 5026.66,910.609C5018.25,903.124 5012.41,892.613 5009.13,879.074C5005.85,865.535 5006.14,847.749 5010.01,825.717L5026.41,733.131L4984.78,733.131L4995.38,673.593L5037.51,658.456L5072.58,594.125L5128.58,593.62L5115.97,666.277ZM6851.14,666.277L6926.82,666.277L6915.22,733.131L6839.28,733.131L6823.14,824.96C6821.62,833.033 6821.33,839.718 6822.26,845.016C6823.18,850.314 6825.03,854.519 6827.81,857.63C6830.58,860.741 6834.15,862.886 6838.53,864.063C6842.9,865.24 6847.69,865.829 6852.91,865.829L6896.55,865.829L6884.95,929.656L6834.24,929.656C6819.61,929.656 6805.98,928.352 6793.37,925.745C6780.76,923.138 6770.24,918.093 6761.83,910.609C6753.43,903.124 6747.58,892.613 6744.3,879.074C6741.02,865.535 6741.32,847.749 6745.18,825.717L6761.58,733.131L6719.96,733.131L6730.55,673.593L6772.68,658.456L6807.75,594.125L6863.75,593.62L6851.14,666.277ZM2352.51,927.89L2274.81,927.89L2320.72,666.277L2397.67,666.277L2394.89,684.693C2403.97,679.311 2414.11,674.896 2425.29,671.448C2436.47,668.001 2448.96,666.277 2462.75,666.277L2499.84,666.277L2487.98,734.14L2455.18,734.392C2433.66,734.392 2415.83,740.363 2401.7,752.304C2387.57,764.245 2378.32,782.241 2373.95,806.291L2352.51,927.89ZM4236.27,927.89L4158.57,927.89L4204.48,666.277L4281.43,666.277L4278.65,684.693C4287.74,679.311 4297.87,674.896 4309.06,671.448C4320.24,668.001 4332.73,666.277 4346.52,666.277L4383.6,666.277L4371.75,734.14L4338.95,734.392C4317.42,734.392 4299.59,740.363 4285.47,752.304C4271.34,764.245 4262.09,782.241 4257.72,806.291L4236.27,927.89ZM5287.27,927.89L5208.81,927.89L5254.97,666.277L5333.43,666.277L5287.27,927.89ZM6525.7,859.27L6669.5,859.27L6657.64,927.89L6433.87,927.89L6494.42,584.791L6574.39,584.791L6525.7,859.27ZM5784,927.89L5706.05,927.89L5752.22,666.277L5830.67,666.277L5828.4,679.143C5839.67,673.088 5851.91,668.043 5865.11,664.006C5878.31,659.97 5891.56,657.952 5904.84,657.952C5925.53,657.952 5942.85,660.937 5956.81,666.907C5970.77,672.878 5981.62,681.455 5989.36,692.64C5997.09,703.824 6001.84,717.405 6003.61,733.383C6005.38,749.36 6004.49,767.44 6000.96,787.623L5976.49,927.89L5898.03,927.89L5922.5,789.389C5924.69,777.279 5925.24,767.104 5924.14,758.863C5923.05,750.622 5920.65,744.021 5916.95,739.059C5913.25,734.098 5908.46,730.524 5902.57,728.337C5896.69,726.151 5889.96,725.058 5882.39,725.058C5872.8,725.058 5863.81,726.866 5855.4,730.482C5846.99,734.098 5839.55,739.059 5833.07,745.366C5826.6,751.673 5821.13,759.199 5816.67,767.945C5812.22,776.691 5809.06,786.193 5807.21,796.452L5784,927.89ZM2937.79,927.89L2859.84,927.89L2906.01,666.277L2984.47,666.277L2982.2,679.143C2993.46,673.088 3005.7,668.043 3018.9,664.006C3032.1,659.97 3045.35,657.952 3058.64,657.952C3079.32,657.952 3096.65,660.937 3110.61,666.907C3124.56,672.878 3135.41,681.455 3143.15,692.64C3150.89,703.824 3155.64,717.405 3157.4,733.383C3159.17,749.36 3158.29,767.44 3154.75,787.623L3130.28,927.89L3051.82,927.89L3076.3,789.389C3078.48,777.279 3079.03,767.104 3077.93,758.863C3076.84,750.622 3074.45,744.021 3070.74,739.059C3067.05,734.098 3062.25,730.524 3056.37,728.337C3050.48,726.151 3043.75,725.058 3036.18,725.058C3026.6,725.058 3017.6,726.866 3009.19,730.482C3000.78,734.098 2993.34,739.059 2986.86,745.366C2980.39,751.673 2974.92,759.199 2970.46,767.945C2966.01,776.691 2962.85,786.193 2961,796.452L2937.79,927.89ZM2300.79,653.41L2205.18,653.41L2156.49,927.89L2076.77,927.89L2125.46,653.41L2029.59,653.41L2041.45,584.791L2312.9,584.791L2300.79,653.41ZM208.044,266.142L168.994,272.65L168.994,886.521L208.044,880.013L208.044,266.142ZM1592.99,874.862C1607.63,874.862 1622.43,872.567 1637.37,867.978C1652.31,863.388 1666.81,856.894 1680.88,848.495L1605,745.077C1596.4,749.374 1587.71,753.964 1578.92,758.847C1570.13,763.729 1562.18,769.296 1555.05,775.546C1547.92,781.796 1542.11,788.925 1537.62,796.933C1533.12,804.94 1530.88,814.12 1530.88,824.472C1530.88,832.479 1532.49,839.56 1535.71,845.712C1538.93,851.864 1543.38,857.138 1549.04,861.532C1554.7,865.927 1561.3,869.247 1568.82,871.493C1576.34,873.739 1584.39,874.862 1592.99,874.862ZM4707.28,809.319C4707.28,818.401 4708.75,826.642 4711.69,834.042C4714.64,841.442 4718.67,847.791 4723.8,853.089C4728.93,858.387 4735.07,862.465 4742.22,865.325C4749.36,868.184 4757.23,869.613 4765.81,869.613C4776.74,869.613 4787.25,867.553 4797.34,863.432C4807.43,859.312 4816.35,853.509 4824.08,846.025C4831.82,838.541 4838,829.627 4842.62,819.284C4847.25,808.94 4849.56,797.546 4849.56,785.1C4849.56,776.018 4848.09,767.819 4845.15,760.503C4842.2,753.187 4838.17,746.88 4833.04,741.582C4827.91,736.284 4821.77,732.206 4814.62,729.346C4807.47,726.487 4799.61,725.058 4791.03,725.058C4779.93,725.058 4769.34,727.118 4759.25,731.238C4749.15,735.359 4740.24,741.161 4732.5,748.646C4724.77,756.13 4718.63,765.044 4714.09,775.387C4709.55,785.731 4707.28,797.041 4707.28,809.319ZM7030.76,809.319C7030.76,818.401 7032.19,826.642 7035.05,834.042C7037.91,841.442 7041.95,847.791 7047.16,853.089C7052.38,858.387 7058.51,862.465 7065.58,865.325C7072.64,868.184 7080.46,869.613 7089.04,869.613C7099.97,869.613 7110.48,867.553 7120.57,863.432C7130.66,859.312 7139.58,853.509 7147.32,846.025C7155.05,838.541 7161.23,829.627 7165.86,819.284C7170.48,808.94 7172.8,797.546 7172.8,785.1C7172.8,776.018 7171.37,767.819 7168.51,760.503C7165.65,753.187 7161.61,746.88 7156.4,741.582C7151.18,736.284 7145,732.206 7137.86,729.346C7130.71,726.487 7122.85,725.058 7114.27,725.058C7103.17,725.058 7092.61,727.118 7082.61,731.238C7072.6,735.359 7063.73,741.161 7055.99,748.646C7048.25,756.13 7042.11,765.044 7037.57,775.387C7033.03,785.731 7030.76,797.041 7030.76,809.319ZM2590.91,809.319C2590.91,818.401 2592.38,826.642 2595.33,834.042C2598.27,841.442 2602.31,847.791 2607.43,853.089C2612.57,858.387 2618.7,862.465 2625.85,865.325C2633,868.184 2640.86,869.613 2649.44,869.613C2660.37,869.613 2670.88,867.553 2680.97,863.432C2691.07,859.312 2699.98,853.509 2707.72,846.025C2715.45,838.541 2721.63,829.627 2726.26,819.284C2730.88,808.94 2733.2,797.546 2733.2,785.1C2733.2,776.018 2731.72,767.819 2728.78,760.503C2725.84,753.187 2721.8,746.88 2716.67,741.582C2711.54,736.284 2705.4,732.206 2698.26,729.346C2691.11,726.487 2683.24,725.058 2674.67,725.058C2663.57,725.058 2652.97,727.118 2642.88,731.238C2632.79,735.359 2623.88,741.161 2616.14,748.646C2608.4,756.13 2602.26,765.044 2597.72,775.387C2593.18,785.731 2590.91,797.041 2590.91,809.319ZM5453.52,809.571C5453.52,818.485 5454.9,826.642 5457.68,834.042C5460.45,841.442 5464.36,847.749 5469.41,852.963C5474.46,858.177 5480.47,862.213 5487.45,865.072C5494.43,867.931 5502.04,869.361 5510.28,869.361C5521.04,869.361 5531.39,867.259 5541.31,863.054C5551.23,858.849 5559.98,853.005 5567.55,845.521C5575.11,838.036 5581.13,829.123 5585.59,818.779C5590.04,808.436 5592.27,797.041 5592.27,784.595C5592.27,775.682 5590.88,767.567 5588.11,760.25C5585.33,752.934 5581.46,746.669 5576.5,741.456C5571.54,736.242 5565.57,732.206 5558.59,729.346C5551.61,726.487 5543.92,725.058 5535.51,725.058C5524.74,725.058 5514.44,727.16 5504.6,731.365C5494.76,735.569 5486.06,741.372 5478.49,748.772C5470.92,756.172 5464.87,765.086 5460.33,775.513C5455.79,785.941 5453.52,797.293 5453.52,809.571ZM3906.8,809.571C3906.8,818.485 3908.18,826.642 3910.96,834.042C3913.73,841.442 3917.64,847.749 3922.69,852.963C3927.74,858.177 3933.75,862.213 3940.73,865.072C3947.71,867.931 3955.32,869.361 3963.56,869.361C3974.32,869.361 3984.67,867.259 3994.59,863.054C4004.51,858.849 4013.26,853.005 4020.83,845.521C4028.39,838.036 4034.41,829.123 4038.86,818.779C4043.32,808.436 4045.55,797.041 4045.55,784.595C4045.55,775.682 4044.16,767.567 4041.39,760.25C4038.61,752.934 4034.74,746.669 4029.78,741.456C4024.82,736.242 4018.85,732.206 4011.87,729.346C4004.89,726.487 3997.2,725.058 3988.79,725.058C3978.02,725.058 3967.72,727.16 3957.88,731.365C3948.04,735.569 3939.34,741.372 3931.77,748.772C3924.2,756.172 3918.15,765.086 3913.61,775.513C3909.07,785.941 3906.8,797.293 3906.8,809.571ZM3705.73,784.848C3705.73,775.766 3704.3,767.525 3701.44,760.124C3698.58,752.724 3694.59,746.375 3689.46,741.077C3684.33,735.779 3678.19,731.701 3671.04,728.842C3663.89,725.983 3656.12,724.553 3647.71,724.553C3636.77,724.553 3626.26,726.613 3616.17,730.734C3606.08,734.854 3597.17,740.657 3589.43,748.141C3581.69,755.625 3575.51,764.539 3570.89,774.883C3566.26,785.226 3563.95,796.621 3563.95,809.066C3563.95,818.148 3565.38,826.347 3568.24,833.664C3571.1,840.98 3575.13,847.287 3580.35,852.584C3585.56,857.882 3591.7,861.961 3598.76,864.82C3605.83,867.679 3613.65,869.109 3622.23,869.109C3633.33,869.109 3643.92,867.048 3654.01,862.928C3664.1,858.807 3672.98,853.005 3680.63,845.521C3688.28,838.036 3694.38,829.165 3698.92,818.905C3703.46,808.646 3705.73,797.293 3705.73,784.848ZM90.89,240.108L77.873,246.617L77.873,860.483L90.89,853.975L90.89,240.108ZM435.844,122.954L331.707,175.021L331.707,847.467L435.844,795.4L435.844,122.954ZM58.348,207.567L45.328,214.075L45.328,827.942L58.348,821.433L58.348,207.567ZM637.611,738.017L636.611,738.017C607.078,714.875 565.928,700.513 520.457,700.513C499.811,700.513 480.057,703.471 461.878,708.871L461.878,215.192C480.057,208.163 499.811,204.313 520.457,204.313C566.448,204.313 608.007,223.433 637.611,254.15L637.611,738.017ZM1058.22,308.492C1145.93,327.646 1211.69,405.833 1211.69,499.258C1211.69,592.683 1145.93,670.871 1058.22,690.025L948.078,499.258L1058.22,308.492ZM1611.15,627.011C1611.15,631.503 1611.83,635.897 1613.2,640.194C1614.57,644.491 1616.28,648.642 1618.33,652.646C1620.38,656.649 1622.67,660.507 1625.21,664.218C1627.75,667.929 1630.29,671.347 1632.83,674.472C1639.47,671.542 1646.65,668.271 1654.36,664.657C1662.08,661.044 1669.26,656.747 1675.9,651.767C1682.54,646.786 1688.06,640.878 1692.45,634.042C1696.84,627.206 1699.04,619.101 1699.04,609.726C1699.04,600.155 1696.01,592.44 1689.96,586.581C1683.9,580.722 1675.41,577.792 1664.47,577.792C1655.88,577.792 1648.31,579.208 1641.77,582.04C1635.22,584.872 1629.66,588.583 1625.07,593.173C1620.48,597.763 1617.01,603.036 1614.67,608.993C1612.32,614.95 1611.15,620.956 1611.15,627.011ZM5260.02,601.441C5260.02,595.218 5261.41,589.248 5264.18,583.529C5266.96,577.811 5270.74,572.807 5275.53,568.519C5280.33,564.23 5286.05,560.824 5292.69,558.301C5299.33,555.779 5306.52,554.517 5314.26,554.517C5320.65,554.517 5326.33,555.442 5331.29,557.292C5336.25,559.142 5340.45,561.707 5343.9,564.987C5347.35,568.266 5349.96,572.051 5351.72,576.339C5353.49,580.628 5354.37,585.211 5354.37,590.089C5354.37,596.48 5352.98,602.492 5350.21,608.126C5347.43,613.761 5343.61,618.722 5338.73,623.011C5333.85,627.3 5328.09,630.705 5321.45,633.228C5314.81,635.751 5307.53,637.012 5299.63,637.012C5293.4,637.012 5287.85,636.087 5282.98,634.237C5278.1,632.387 5273.94,629.822 5270.49,626.543C5267.04,623.263 5264.43,619.479 5262.67,615.19C5260.9,610.902 5260.02,606.318 5260.02,601.441ZM4261.23,336.938C4260.89,340.806 4261.48,344.38 4262.99,347.66C4264.51,350.939 4266.86,353.756 4270.06,356.111C4273.25,358.466 4277.12,360.274 4281.66,361.535C4286.2,362.796 4291.33,363.427 4297.05,363.427C4313.37,363.427 4325.18,361.199 4332.5,356.742C4339.81,352.285 4343.47,346.272 4343.47,338.704C4343.47,335.004 4342.04,331.976 4339.18,329.622C4336.32,327.267 4332.12,325.207 4326.57,323.441C4321.02,321.675 4314.21,319.951 4306.14,318.269C4298.06,316.587 4288.9,314.569 4278.64,312.215C4271.91,310.869 4264.55,309.061 4256.56,306.791C4248.57,304.52 4241.13,301.03 4234.23,296.321C4227.34,291.612 4221.58,285.431 4216.95,277.778C4212.33,270.126 4210.02,260.245 4210.02,248.136C4210.02,233.167 4212.75,219.544 4218.22,207.267C4223.68,194.989 4231.92,184.519 4242.94,175.858C4253.95,167.196 4267.87,160.511 4284.69,155.802C4301.51,151.093 4321.27,148.738 4343.98,148.738C4360.29,148.738 4374.63,150.84 4386.99,155.045C4399.35,159.25 4409.44,165.22 4417.26,172.957C4425.08,180.693 4430.51,189.901 4433.53,200.581C4436.56,211.261 4436.98,222.992 4434.8,235.774L4356.34,235.522C4357.01,229.131 4354.95,223.623 4350.16,218.998C4345.36,214.372 4338.01,212.06 4328.08,212.06C4321.52,212.06 4315.85,212.733 4311.05,214.078C4306.26,215.424 4302.22,217.232 4298.94,219.502C4295.66,221.773 4293.23,224.337 4291.63,227.197C4290.03,230.056 4289.23,232.999 4289.23,236.026C4289.23,241.913 4293.02,246.075 4300.59,248.514C4308.15,250.953 4320.09,253.349 4336.41,255.704C4348.35,257.891 4359.79,260.455 4370.72,263.399C4381.65,266.342 4391.28,270.294 4399.6,275.256C4407.93,280.217 4414.53,286.524 4419.41,294.177C4424.28,301.829 4426.72,311.542 4426.72,323.315C4426.72,340.806 4423.11,356.069 4415.88,369.103C4408.64,382.138 4398.68,392.986 4385.98,401.647C4373.28,410.309 4358.19,416.784 4340.7,421.073C4323.21,425.361 4304.2,427.506 4283.68,427.506C4263.5,427.506 4246.64,424.815 4233.1,419.433C4219.56,414.051 4208.88,407.029 4201.06,398.368C4193.24,389.706 4188.07,379.951 4185.55,369.103C4183.02,358.255 4182.69,347.449 4184.54,336.686L4261.23,336.938ZM3305.85,308.43C3305.85,294.303 3307.87,280.511 3311.91,267.057C3315.94,253.602 3321.66,240.946 3329.06,229.089C3336.46,217.232 3345.33,206.384 3355.68,196.545C3366.02,186.706 3377.54,178.255 3390.24,171.191C3402.93,164.127 3416.6,158.619 3431.23,154.667C3445.87,150.714 3461.17,148.738 3477.15,148.738C3496.32,148.738 3513.64,151.849 3529.12,158.072C3544.59,164.295 3557.71,172.746 3568.47,183.426C3579.24,194.106 3587.52,206.678 3593.32,221.142C3599.12,235.606 3602.03,251.079 3602.03,267.561C3602.03,281.857 3600.01,295.732 3595.97,309.187C3591.93,322.642 3586.22,335.298 3578.82,347.155C3571.41,359.012 3562.5,369.818 3552.07,379.573C3541.65,389.328 3530.04,397.737 3517.26,404.801C3504.48,411.865 3490.64,417.331 3475.76,421.199C3460.88,425.067 3445.36,427.001 3429.21,427.001C3410.38,427.001 3393.35,423.932 3378.13,417.793C3362.91,411.654 3349.96,403.245 3339.28,392.565C3328.6,381.885 3320.36,369.314 3314.55,354.85C3308.75,340.386 3305.85,324.913 3305.85,308.43ZM2268.73,359.895C2277.31,359.895 2285.22,358.802 2292.45,356.616C2299.68,354.429 2306.15,350.771 2311.87,345.641C2317.59,340.512 2322.47,333.742 2326.5,325.333C2330.54,316.924 2333.65,306.412 2335.84,293.798L2360.06,157.063L2438.26,157.063L2413.79,296.321C2409.59,320.203 2402.65,340.428 2392.98,356.994C2383.31,373.56 2371.62,387.015 2357.91,397.359C2344.21,407.702 2328.78,415.228 2311.62,419.937C2294.47,424.647 2276.3,427.001 2257.13,427.001C2237.95,427.001 2220.63,424.647 2205.16,419.937C2189.68,415.228 2176.9,407.702 2166.81,397.359C2156.72,387.015 2149.74,373.56 2145.87,356.994C2142,340.428 2142.17,320.203 2146.38,296.321L2170.85,157.063L2249.05,157.063L2225.09,293.798C2222.73,306.244 2222.1,316.713 2223.2,325.207C2224.29,333.7 2226.77,340.512 2230.64,345.641C2234.51,350.771 2239.68,354.429 2246.15,356.616C2252.63,358.802 2260.16,359.895 2268.73,359.895ZM3773.58,359.895C3782.15,359.895 3790.06,358.802 3797.29,356.616C3804.52,354.429 3811,350.771 3816.71,345.641C3822.43,340.512 3827.31,333.742 3831.35,325.333C3835.38,316.924 3838.49,306.412 3840.68,293.798L3864.9,157.063L3943.11,157.063L3918.64,296.321C3914.43,320.203 3907.49,340.428 3897.82,356.994C3888.15,373.56 3876.46,387.015 3862.76,397.359C3849.05,407.702 3833.62,415.228 3816.46,419.937C3799.31,424.647 3781.14,427.001 3761.97,427.001C3742.8,427.001 3725.47,424.647 3710,419.937C3694.53,415.228 3681.74,407.702 3671.65,397.359C3661.56,387.015 3654.58,373.56 3650.72,356.994C3646.85,340.428 3647.01,320.203 3651.22,296.321L3675.69,157.063L3753.9,157.063L3729.93,293.798C3727.58,306.244 3726.95,316.713 3728.04,325.207C3729.13,333.7 3731.61,340.512 3735.48,345.641C3739.35,350.771 3744.52,354.429 3751,356.616C3757.47,358.802 3765,359.895 3773.58,359.895ZM2535.64,418.676L2457.69,418.676L2520.51,63.215L2598.46,63.215L2562.39,267.561L2668.59,157.063L2759.92,157.063L2652.2,266.3L2721.07,418.676L2628.99,418.676L2587.87,317.008L2546.24,358.129L2535.64,418.676ZM4039.48,418.676L3961.77,418.676L4007.69,157.063L4084.63,157.063L4081.86,175.479C4090.94,170.098 4101.07,165.683 4112.26,162.235C4123.44,158.787 4135.93,157.063 4149.72,157.063L4186.81,157.063L4174.95,224.926L4142.15,225.178C4120.63,225.178 4102.8,231.149 4088.67,243.09C4074.54,255.031 4065.29,273.027 4060.92,297.078L4039.48,418.676ZM2052.78,418.676L1974.32,418.676L2020.49,157.063L2098.95,157.063L2052.78,418.676ZM2844.18,418.676L2765.72,418.676L2811.89,157.063L2890.35,157.063L2844.18,418.676ZM1702.87,418.676L1622.9,418.676L1683.45,75.577L1763.42,75.577L1732.89,247.631L1895.87,75.577L1988.96,75.577L1841.62,228.458L1933.71,418.676L1839.35,418.676L1779.31,287.239L1714.22,354.597L1702.87,418.676ZM3339.4,144.197L3243.79,144.197L3195.1,418.676L3115.38,418.676L3164.07,144.197L3068.2,144.197L3080.06,75.577L3351.51,75.577L3339.4,144.197ZM3384.56,300.357C3384.56,309.271 3385.95,317.428 3388.72,324.828C3391.5,332.229 3395.41,338.536 3400.45,343.749C3405.5,348.963 3411.51,353 3418.49,355.859C3425.47,358.718 3433.08,360.147 3441.32,360.147C3452.09,360.147 3462.43,358.045 3472.35,353.84C3482.28,349.636 3491.02,343.791 3498.59,336.307C3506.16,328.823 3512.17,319.909 3516.63,309.566C3521.09,299.222 3523.31,287.828 3523.31,275.382C3523.31,266.468 3521.93,258.353 3519.15,251.037C3516.38,243.721 3512.51,237.456 3507.55,232.242C3502.59,227.028 3496.62,222.992 3489.64,220.133C3482.66,217.274 3474.96,215.844 3466.55,215.844C3455.79,215.844 3445.49,217.946 3435.65,222.151C3425.81,226.356 3417.11,232.158 3409.54,239.558C3401.97,246.958 3395.91,255.872 3391.37,266.3C3386.83,276.727 3384.56,288.08 3384.56,300.357ZM2025.54,92.228C2025.54,86.005 2026.92,80.034 2029.7,74.316C2032.47,68.597 2036.26,63.594 2041.05,59.305C2045.84,55.016 2051.56,51.611 2058.21,49.088C2064.85,46.565 2072.04,45.304 2079.78,45.304C2086.17,45.304 2091.84,46.229 2096.8,48.079C2101.77,49.929 2105.97,52.494 2109.42,55.773C2112.87,59.053 2115.47,62.837 2117.24,67.126C2119.01,71.415 2119.89,75.998 2119.89,80.875C2119.89,87.266 2118.5,93.279 2115.72,98.913C2112.95,104.547 2109.12,109.509 2104.25,113.797C2099.37,118.086 2093.61,121.492 2086.97,124.015C2080.32,126.537 2073.05,127.799 2065.14,127.799C2058.92,127.799 2053.37,126.874 2048.49,125.024C2043.62,123.174 2039.45,120.609 2036.01,117.329C2032.56,114.05 2029.95,110.265 2028.18,105.977C2026.42,101.688 2025.54,97.105 2025.54,92.228ZM2816.93,92.228C2816.93,86.005 2818.32,80.034 2821.1,74.316C2823.87,68.597 2827.66,63.594 2832.45,59.305C2837.24,55.016 2842.96,51.611 2849.6,49.088C2856.25,46.565 2863.44,45.304 2871.17,45.304C2877.57,45.304 2883.24,46.229 2888.2,48.079C2893.16,49.929 2897.37,52.494 2900.82,55.773C2904.26,59.053 2906.87,62.837 2908.64,67.126C2910.4,71.415 2911.29,75.998 2911.29,80.875C2911.29,87.266 2909.9,93.279 2907.12,98.913C2904.35,104.547 2900.52,109.509 2895.64,113.797C2890.77,118.086 2885.01,121.492 2878.36,124.015C2871.72,126.537 2864.45,127.799 2856.54,127.799C2850.32,127.799 2844.77,126.874 2839.89,125.024C2835.01,123.174 2830.85,120.609 2827.4,117.329C2823.96,114.05 2821.35,110.265 2819.58,105.977C2817.82,101.688 2816.93,97.105 2816.93,92.228Z" style="fill:white;stroke:white;stroke-width:62.5px;"></path> </g> <g transform="matrix(4.16667,0,0,4.16667,49.3401,41.8584)"> <path d="M233.836,7.28L283.963,7.28L283.963,49.65L258.298,49.65L220.697,114.776L258.298,179.902L283.963,179.902L283.963,222.272L233.836,222.272L195.73,156.271L195.73,222.272L153.361,222.272L153.361,7.28L195.73,7.28L195.73,73.281L233.836,7.28Z" style="fill:rgb(53,35,83);"></path> <path d="M247.131,68.992C268.182,73.589 283.963,92.354 283.963,114.776C283.963,137.198 268.182,155.963 247.131,160.56L220.697,114.776L247.131,68.992Z" style="fill:rgb(255,216,0);"></path> <path d="M197.099,114.776L153.361,31.206L153.361,198.346L197.099,114.776Z" style="fill:rgb(252,113,0);"></path> <path d="M146.185,172.078L145.945,172.078C138.857,166.524 128.981,163.077 118.068,163.077C113.113,163.077 108.372,163.787 104.009,165.083L104.009,46.6C108.372,44.913 113.113,43.989 118.068,43.989C129.106,43.989 139.08,48.578 146.185,55.95L146.185,172.078Z" style="fill:rgb(252,113,0);"></path> <path d="M97.761,24.463L72.768,36.959L72.768,198.346L97.761,185.85L97.761,24.463Z" style="fill:rgb(252,113,0);"></path> <path d="M66.52,15.09L50.899,24.463L50.899,229.587L66.52,220.215L66.52,15.09Z" style="fill:rgb(252,113,0);"></path> <path d="M43.089,58.828L33.717,60.39L33.717,207.719L43.089,206.157L43.089,58.828Z" style="fill:rgb(255,216,0);"></path> <path d="M27.468,27.587L19.658,24.463L19.658,235.836L27.468,238.96L27.468,27.587Z" style="fill:rgb(255,216,0);"></path> <path d="M14.972,52.58L11.848,54.142L11.848,201.47L14.972,199.908L14.972,52.58Z" style="fill:rgb(255,216,0);"></path> <path d="M7.162,44.77L4.037,46.332L4.037,193.66L7.162,192.098L7.162,44.77Z" style="fill:rgb(255,216,0);"></path> </g> <g transform="matrix(4.16667,0,0,4.16667,-55.6992,-148.074)"> <g> <g transform="matrix(1,0,0,1,399.266,141.02)"> <g transform="matrix(124,0,0,124,0,0)"> <path d="M0.282,-0.331L0.598,-0.664L0.778,-0.664L0.493,-0.368L0.671,-0L0.488,-0L0.372,-0.254L0.246,-0.124L0.224,-0L0.069,-0L0.187,-0.664L0.341,-0.664L0.282,-0.331Z" style="fill:rgb(53,35,83);fill-rule:nonzero;"></path> </g> <g transform="matrix(124,0,0,124,84.1602,0)"> <path d="M0.16,-0.506L0.312,-0.506L0.223,-0L0.071,-0L0.16,-0.506ZM0.17,-0.632C0.17,-0.644 0.173,-0.655 0.178,-0.667C0.183,-0.678 0.191,-0.687 0.2,-0.696C0.209,-0.704 0.22,-0.71 0.233,-0.715C0.246,-0.72 0.26,-0.723 0.275,-0.723C0.287,-0.723 0.298,-0.721 0.308,-0.717C0.317,-0.714 0.326,-0.709 0.332,-0.702C0.339,-0.696 0.344,-0.689 0.347,-0.68C0.351,-0.672 0.353,-0.663 0.353,-0.654C0.353,-0.641 0.35,-0.63 0.344,-0.619C0.339,-0.608 0.332,-0.598 0.322,-0.59C0.313,-0.582 0.302,-0.575 0.289,-0.57C0.276,-0.565 0.262,-0.563 0.247,-0.563C0.235,-0.563 0.224,-0.565 0.214,-0.568C0.205,-0.572 0.197,-0.577 0.19,-0.583C0.184,-0.59 0.178,-0.597 0.175,-0.605C0.172,-0.614 0.17,-0.622 0.17,-0.632Z" style="fill:rgb(53,35,83);fill-rule:nonzero;"></path> </g> <g transform="matrix(124,0,0,124,122.062,0)"> <path d="M0.335,-0.114C0.352,-0.114 0.367,-0.116 0.381,-0.12C0.395,-0.124 0.407,-0.131 0.418,-0.141C0.43,-0.151 0.439,-0.164 0.447,-0.181C0.455,-0.197 0.461,-0.217 0.465,-0.242L0.512,-0.506L0.663,-0.506L0.616,-0.237C0.608,-0.191 0.594,-0.151 0.575,-0.119C0.557,-0.087 0.534,-0.061 0.508,-0.041C0.481,-0.021 0.451,-0.007 0.418,0.002C0.385,0.012 0.35,0.016 0.313,0.016C0.275,0.016 0.242,0.012 0.212,0.002C0.182,-0.007 0.157,-0.021 0.138,-0.041C0.118,-0.061 0.105,-0.087 0.097,-0.119C0.09,-0.151 0.09,-0.191 0.098,-0.237L0.146,-0.506L0.297,-0.506L0.25,-0.242C0.246,-0.218 0.245,-0.197 0.247,-0.181C0.249,-0.164 0.254,-0.151 0.261,-0.141C0.269,-0.131 0.279,-0.124 0.291,-0.12C0.304,-0.116 0.318,-0.114 0.335,-0.114Z" style="fill:rgb(53,35,83);fill-rule:nonzero;"></path> </g> <g transform="matrix(124,0,0,124,200.168,0)"> <path d="M0.192,-0.688L0.343,-0.688L0.273,-0.292L0.479,-0.506L0.656,-0.506L0.447,-0.295L0.581,-0L0.402,-0L0.323,-0.197L0.242,-0.117L0.222,-0L0.071,-0L0.192,-0.688Z" style="fill:rgb(53,35,83);fill-rule:nonzero;"></path> </g> <g transform="matrix(124,0,0,124,274.096,0)"> <path d="M0.16,-0.506L0.312,-0.506L0.223,-0L0.071,-0L0.16,-0.506ZM0.17,-0.632C0.17,-0.644 0.173,-0.655 0.178,-0.667C0.183,-0.678 0.191,-0.687 0.2,-0.696C0.209,-0.704 0.22,-0.71 0.233,-0.715C0.246,-0.72 0.26,-0.723 0.275,-0.723C0.287,-0.723 0.298,-0.721 0.308,-0.717C0.317,-0.714 0.326,-0.709 0.332,-0.702C0.339,-0.696 0.344,-0.689 0.347,-0.68C0.351,-0.672 0.353,-0.663 0.353,-0.654C0.353,-0.641 0.35,-0.63 0.344,-0.619C0.339,-0.608 0.332,-0.598 0.322,-0.59C0.313,-0.582 0.302,-0.575 0.289,-0.57C0.276,-0.565 0.262,-0.563 0.247,-0.563C0.235,-0.563 0.224,-0.565 0.214,-0.568C0.205,-0.572 0.197,-0.577 0.19,-0.583C0.184,-0.59 0.178,-0.597 0.175,-0.605C0.172,-0.614 0.17,-0.622 0.17,-0.632Z" style="fill:rgb(53,35,83);fill-rule:nonzero;"></path> </g> <g transform="matrix(124,0,0,124,340.939,0)"> <path d="M0.303,-0.531L0.117,-0.531L0.14,-0.664L0.666,-0.664L0.642,-0.531L0.457,-0.531L0.363,-0L0.208,-0L0.303,-0.531Z" style="fill:rgb(53,35,83);fill-rule:nonzero;"></path> </g> </g> <g transform="matrix(1,0,0,1,801.055,141.02)"> <g transform="matrix(124,0,0,124,0,0)"> <path d="M0.086,-0.213C0.086,-0.241 0.09,-0.267 0.098,-0.293C0.106,-0.319 0.117,-0.344 0.131,-0.367C0.146,-0.39 0.163,-0.411 0.183,-0.43C0.203,-0.449 0.225,-0.465 0.25,-0.479C0.274,-0.493 0.301,-0.503 0.329,-0.511C0.357,-0.519 0.387,-0.522 0.418,-0.522C0.455,-0.522 0.489,-0.516 0.519,-0.504C0.549,-0.492 0.574,-0.476 0.595,-0.455C0.616,-0.435 0.632,-0.41 0.643,-0.382C0.654,-0.354 0.66,-0.324 0.66,-0.292C0.66,-0.265 0.656,-0.238 0.648,-0.212C0.64,-0.186 0.629,-0.161 0.615,-0.138C0.6,-0.115 0.583,-0.095 0.563,-0.076C0.543,-0.057 0.52,-0.041 0.496,-0.027C0.471,-0.013 0.444,-0.003 0.415,0.005C0.386,0.012 0.356,0.016 0.325,0.016C0.289,0.016 0.256,0.01 0.226,-0.002C0.197,-0.014 0.172,-0.03 0.151,-0.051C0.13,-0.071 0.115,-0.096 0.103,-0.124C0.092,-0.152 0.086,-0.181 0.086,-0.213ZM0.239,-0.229C0.239,-0.212 0.241,-0.196 0.247,-0.182C0.252,-0.167 0.26,-0.155 0.27,-0.145C0.279,-0.135 0.291,-0.127 0.304,-0.122C0.318,-0.116 0.333,-0.113 0.349,-0.113C0.369,-0.113 0.389,-0.117 0.409,-0.125C0.428,-0.134 0.445,-0.145 0.459,-0.159C0.474,-0.174 0.486,-0.191 0.494,-0.211C0.503,-0.231 0.507,-0.253 0.507,-0.277C0.507,-0.295 0.505,-0.31 0.499,-0.324C0.494,-0.339 0.486,-0.351 0.477,-0.361C0.467,-0.371 0.456,-0.379 0.442,-0.384C0.429,-0.39 0.414,-0.393 0.397,-0.393C0.377,-0.393 0.357,-0.389 0.338,-0.38C0.319,-0.372 0.302,-0.361 0.287,-0.347C0.272,-0.332 0.261,-0.315 0.252,-0.295C0.243,-0.275 0.239,-0.253 0.239,-0.229Z" style="fill:rgb(53,35,83);fill-rule:nonzero;"></path> </g> <g transform="matrix(124,0,0,124,81.4355,0)"> <path d="M0.335,-0.114C0.352,-0.114 0.367,-0.116 0.381,-0.12C0.395,-0.124 0.407,-0.131 0.418,-0.141C0.43,-0.151 0.439,-0.164 0.447,-0.181C0.455,-0.197 0.461,-0.217 0.465,-0.242L0.512,-0.506L0.663,-0.506L0.616,-0.237C0.608,-0.191 0.594,-0.151 0.575,-0.119C0.557,-0.087 0.534,-0.061 0.508,-0.041C0.481,-0.021 0.451,-0.007 0.418,0.002C0.385,0.012 0.35,0.016 0.313,0.016C0.275,0.016 0.242,0.012 0.212,0.002C0.182,-0.007 0.157,-0.021 0.138,-0.041C0.118,-0.061 0.105,-0.087 0.097,-0.119C0.09,-0.151 0.09,-0.191 0.098,-0.237L0.146,-0.506L0.297,-0.506L0.25,-0.242C0.246,-0.218 0.245,-0.197 0.247,-0.181C0.249,-0.164 0.254,-0.151 0.261,-0.141C0.269,-0.131 0.279,-0.124 0.291,-0.12C0.304,-0.116 0.318,-0.114 0.335,-0.114Z" style="fill:rgb(53,35,83);fill-rule:nonzero;"></path> </g> <g transform="matrix(124,0,0,124,159.541,0)"> <path d="M0.482,-0.375L0.418,-0.375C0.377,-0.375 0.342,-0.363 0.315,-0.34C0.288,-0.317 0.27,-0.282 0.261,-0.235L0.22,-0L0.069,-0L0.158,-0.506L0.307,-0.506L0.302,-0.471C0.319,-0.481 0.339,-0.49 0.361,-0.496C0.382,-0.503 0.406,-0.506 0.433,-0.506L0.505,-0.506L0.482,-0.375Z" style="fill:rgb(53,35,83);fill-rule:nonzero;"></path> </g> <g transform="matrix(124,0,0,124,214.457,0)"> <path d="M0.206,-0.158C0.205,-0.151 0.207,-0.144 0.209,-0.137C0.212,-0.131 0.217,-0.126 0.223,-0.121C0.229,-0.117 0.237,-0.113 0.246,-0.111C0.254,-0.108 0.264,-0.107 0.275,-0.107C0.307,-0.107 0.33,-0.111 0.344,-0.12C0.358,-0.128 0.365,-0.14 0.365,-0.155C0.365,-0.162 0.362,-0.168 0.357,-0.172C0.351,-0.177 0.343,-0.181 0.333,-0.184C0.322,-0.188 0.309,-0.191 0.293,-0.194C0.277,-0.198 0.26,-0.201 0.24,-0.206C0.227,-0.209 0.212,-0.212 0.197,-0.217C0.182,-0.221 0.167,-0.228 0.154,-0.237C0.14,-0.246 0.129,-0.258 0.12,-0.273C0.111,-0.288 0.107,-0.307 0.107,-0.33C0.107,-0.359 0.112,-0.385 0.123,-0.409C0.133,-0.433 0.149,-0.453 0.171,-0.47C0.192,-0.487 0.219,-0.5 0.251,-0.509C0.284,-0.518 0.322,-0.522 0.366,-0.522C0.398,-0.522 0.426,-0.518 0.449,-0.51C0.473,-0.502 0.493,-0.491 0.508,-0.476C0.523,-0.461 0.534,-0.443 0.54,-0.422C0.545,-0.401 0.546,-0.379 0.542,-0.354L0.39,-0.354C0.391,-0.367 0.387,-0.378 0.378,-0.386C0.369,-0.395 0.355,-0.4 0.335,-0.4C0.323,-0.4 0.312,-0.399 0.302,-0.396C0.293,-0.393 0.285,-0.39 0.279,-0.385C0.273,-0.381 0.268,-0.376 0.265,-0.371C0.262,-0.365 0.26,-0.359 0.26,-0.354C0.26,-0.342 0.268,-0.334 0.282,-0.329C0.297,-0.325 0.32,-0.32 0.352,-0.315C0.375,-0.311 0.397,-0.306 0.418,-0.301C0.439,-0.295 0.458,-0.287 0.474,-0.278C0.49,-0.268 0.503,-0.256 0.512,-0.241C0.522,-0.226 0.526,-0.207 0.526,-0.185C0.526,-0.151 0.519,-0.121 0.505,-0.096C0.491,-0.071 0.472,-0.05 0.448,-0.033C0.423,-0.016 0.394,-0.004 0.36,0.005C0.326,0.013 0.289,0.017 0.25,0.017C0.21,0.017 0.178,0.012 0.152,0.001C0.125,-0.009 0.105,-0.023 0.09,-0.039C0.074,-0.056 0.064,-0.075 0.06,-0.096C0.055,-0.117 0.054,-0.138 0.058,-0.159L0.206,-0.158Z" style="fill:rgb(53,35,83);fill-rule:nonzero;"></path> </g> </g> </g> </g> <g transform="matrix(4.16667,0,0,4.16667,-229.671,361.14)"> <g transform="matrix(1,0,0,1,399.266,141.02)"> <g transform="matrix(144,0,0,144,0,0)"> <path d="M0.503,-0.055C0.468,-0.033 0.431,-0.016 0.394,-0.004C0.356,0.008 0.32,0.014 0.286,0.014C0.255,0.014 0.227,0.01 0.202,0.002C0.176,-0.007 0.154,-0.018 0.135,-0.033C0.116,-0.048 0.102,-0.066 0.091,-0.087C0.08,-0.108 0.075,-0.132 0.075,-0.157C0.075,-0.187 0.081,-0.213 0.093,-0.236C0.104,-0.258 0.12,-0.278 0.138,-0.295C0.157,-0.313 0.177,-0.328 0.2,-0.341C0.223,-0.354 0.245,-0.366 0.267,-0.377C0.26,-0.384 0.253,-0.392 0.247,-0.401C0.24,-0.41 0.234,-0.419 0.229,-0.43C0.224,-0.441 0.22,-0.452 0.217,-0.464C0.213,-0.476 0.212,-0.488 0.212,-0.5C0.212,-0.527 0.218,-0.551 0.229,-0.573C0.24,-0.595 0.256,-0.614 0.276,-0.63C0.295,-0.645 0.319,-0.658 0.345,-0.667C0.372,-0.675 0.401,-0.68 0.431,-0.68C0.457,-0.68 0.479,-0.677 0.5,-0.671C0.52,-0.665 0.537,-0.656 0.552,-0.645C0.566,-0.634 0.577,-0.62 0.585,-0.603C0.592,-0.587 0.596,-0.568 0.596,-0.547C0.596,-0.524 0.592,-0.503 0.583,-0.484C0.574,-0.465 0.562,-0.448 0.547,-0.433C0.531,-0.417 0.514,-0.403 0.494,-0.391C0.475,-0.378 0.454,-0.367 0.433,-0.356L0.538,-0.208C0.555,-0.226 0.57,-0.246 0.582,-0.268C0.594,-0.289 0.603,-0.311 0.609,-0.333L0.717,-0.333C0.708,-0.293 0.693,-0.256 0.672,-0.221C0.651,-0.187 0.625,-0.155 0.596,-0.126L0.686,-0L0.543,-0L0.503,-0.055ZM0.3,-0.088C0.324,-0.088 0.349,-0.092 0.374,-0.1C0.399,-0.108 0.423,-0.118 0.446,-0.132L0.32,-0.305C0.306,-0.298 0.291,-0.29 0.276,-0.282C0.262,-0.274 0.248,-0.264 0.237,-0.254C0.225,-0.243 0.215,-0.232 0.208,-0.218C0.2,-0.205 0.196,-0.19 0.196,-0.172C0.196,-0.159 0.199,-0.147 0.204,-0.137C0.21,-0.127 0.217,-0.118 0.227,-0.111C0.236,-0.103 0.247,-0.098 0.26,-0.094C0.272,-0.09 0.285,-0.088 0.3,-0.088ZM0.33,-0.501C0.33,-0.494 0.331,-0.487 0.333,-0.479C0.336,-0.472 0.339,-0.465 0.342,-0.459C0.345,-0.452 0.349,-0.446 0.354,-0.439C0.358,-0.433 0.362,-0.428 0.366,-0.422C0.377,-0.427 0.389,-0.433 0.402,-0.439C0.415,-0.445 0.427,-0.452 0.438,-0.46C0.449,-0.469 0.458,-0.478 0.466,-0.49C0.473,-0.501 0.477,-0.515 0.477,-0.53C0.477,-0.546 0.472,-0.559 0.461,-0.569C0.451,-0.579 0.437,-0.583 0.419,-0.583C0.405,-0.583 0.392,-0.581 0.381,-0.576C0.37,-0.572 0.361,-0.566 0.353,-0.558C0.346,-0.55 0.34,-0.541 0.336,-0.531C0.332,-0.522 0.33,-0.512 0.33,-0.501Z" style="fill:rgb(53,35,83);fill-rule:nonzero;"></path> </g> </g> <g> <g transform="matrix(1,0,0,1,532.692,141.02)"> <g transform="matrix(124,0,0,124,0,0)"> <path d="M0.303,-0.531L0.117,-0.531L0.14,-0.664L0.666,-0.664L0.642,-0.531L0.457,-0.531L0.363,-0L0.208,-0L0.303,-0.531Z" style="fill:rgb(53,35,83);fill-rule:nonzero;"></path> </g> </g> <g transform="matrix(1,0,0,1,597.477,141.02)"> <g transform="matrix(124,0,0,124,0,0)"> <path d="M0.482,-0.375L0.418,-0.375C0.377,-0.375 0.342,-0.363 0.315,-0.34C0.288,-0.317 0.27,-0.282 0.261,-0.235L0.22,-0L0.069,-0L0.158,-0.506L0.307,-0.506L0.302,-0.471C0.319,-0.481 0.339,-0.49 0.361,-0.496C0.382,-0.503 0.406,-0.506 0.433,-0.506L0.505,-0.506L0.482,-0.375Z" style="fill:rgb(53,35,83);fill-rule:nonzero;"></path> </g> <g transform="matrix(124,0,0,124,54.916,0)"> <path d="M0.085,-0.21C0.085,-0.238 0.089,-0.265 0.096,-0.291C0.103,-0.317 0.114,-0.342 0.127,-0.365C0.141,-0.388 0.157,-0.409 0.176,-0.428C0.195,-0.448 0.217,-0.464 0.24,-0.478C0.264,-0.492 0.29,-0.503 0.319,-0.511C0.347,-0.519 0.376,-0.522 0.408,-0.522C0.44,-0.522 0.467,-0.518 0.491,-0.508C0.515,-0.498 0.535,-0.486 0.551,-0.472L0.561,-0.506L0.699,-0.506L0.61,-0L0.468,-0L0.471,-0.031C0.45,-0.017 0.427,-0.006 0.4,0.003C0.374,0.012 0.346,0.016 0.315,0.016C0.279,0.016 0.247,0.01 0.218,-0.001C0.19,-0.013 0.165,-0.029 0.146,-0.05C0.126,-0.07 0.111,-0.094 0.101,-0.121C0.091,-0.149 0.085,-0.178 0.085,-0.21ZM0.238,-0.229C0.238,-0.212 0.241,-0.196 0.247,-0.182C0.253,-0.167 0.26,-0.155 0.27,-0.145C0.28,-0.135 0.292,-0.127 0.306,-0.121C0.32,-0.116 0.335,-0.113 0.352,-0.113C0.373,-0.113 0.393,-0.117 0.413,-0.125C0.432,-0.133 0.449,-0.144 0.464,-0.158C0.479,-0.173 0.491,-0.19 0.5,-0.21C0.509,-0.23 0.514,-0.252 0.514,-0.276C0.514,-0.294 0.511,-0.31 0.505,-0.324C0.499,-0.338 0.492,-0.35 0.482,-0.361C0.472,-0.371 0.46,-0.379 0.446,-0.384C0.432,-0.39 0.417,-0.393 0.4,-0.393C0.379,-0.393 0.358,-0.389 0.339,-0.381C0.319,-0.373 0.302,-0.361 0.287,-0.347C0.272,-0.332 0.26,-0.315 0.251,-0.295C0.243,-0.275 0.238,-0.253 0.238,-0.229Z" style="fill:rgb(53,35,83);fill-rule:nonzero;"></path> </g> <g transform="matrix(124,0,0,124,140.227,0)"> <path d="M0.594,-0L0.442,-0L0.49,-0.268C0.494,-0.292 0.495,-0.311 0.493,-0.327C0.491,-0.343 0.486,-0.356 0.479,-0.365C0.472,-0.375 0.463,-0.382 0.451,-0.386C0.44,-0.39 0.427,-0.393 0.412,-0.393C0.394,-0.393 0.376,-0.389 0.36,-0.382C0.344,-0.375 0.329,-0.365 0.317,-0.353C0.304,-0.341 0.294,-0.326 0.285,-0.31C0.276,-0.293 0.27,-0.274 0.267,-0.254L0.222,-0L0.071,-0L0.16,-0.506L0.312,-0.506L0.308,-0.481C0.329,-0.493 0.353,-0.503 0.379,-0.511C0.404,-0.519 0.43,-0.522 0.456,-0.522C0.496,-0.522 0.529,-0.517 0.556,-0.505C0.583,-0.494 0.604,-0.477 0.619,-0.455C0.634,-0.434 0.643,-0.407 0.647,-0.376C0.65,-0.346 0.648,-0.311 0.642,-0.271L0.594,-0Z" style="fill:rgb(53,35,83);fill-rule:nonzero;"></path> </g> <g transform="matrix(124,0,0,124,220.875,0)"> <path d="M0.206,-0.158C0.205,-0.151 0.207,-0.144 0.209,-0.137C0.212,-0.131 0.217,-0.126 0.223,-0.121C0.229,-0.117 0.237,-0.113 0.246,-0.111C0.254,-0.108 0.264,-0.107 0.275,-0.107C0.307,-0.107 0.33,-0.111 0.344,-0.12C0.358,-0.128 0.365,-0.14 0.365,-0.155C0.365,-0.162 0.362,-0.168 0.357,-0.172C0.351,-0.177 0.343,-0.181 0.333,-0.184C0.322,-0.188 0.309,-0.191 0.293,-0.194C0.277,-0.198 0.26,-0.201 0.24,-0.206C0.227,-0.209 0.212,-0.212 0.197,-0.217C0.182,-0.221 0.167,-0.228 0.154,-0.237C0.14,-0.246 0.129,-0.258 0.12,-0.273C0.111,-0.288 0.107,-0.307 0.107,-0.33C0.107,-0.359 0.112,-0.385 0.123,-0.409C0.133,-0.433 0.149,-0.453 0.171,-0.47C0.192,-0.487 0.219,-0.5 0.251,-0.509C0.284,-0.518 0.322,-0.522 0.366,-0.522C0.398,-0.522 0.426,-0.518 0.449,-0.51C0.473,-0.502 0.493,-0.491 0.508,-0.476C0.523,-0.461 0.534,-0.443 0.54,-0.422C0.545,-0.401 0.546,-0.379 0.542,-0.354L0.39,-0.354C0.391,-0.367 0.387,-0.378 0.378,-0.386C0.369,-0.395 0.355,-0.4 0.335,-0.4C0.323,-0.4 0.312,-0.399 0.302,-0.396C0.293,-0.393 0.285,-0.39 0.279,-0.385C0.273,-0.381 0.268,-0.376 0.265,-0.371C0.262,-0.365 0.26,-0.359 0.26,-0.354C0.26,-0.342 0.268,-0.334 0.282,-0.329C0.297,-0.325 0.32,-0.32 0.352,-0.315C0.375,-0.311 0.397,-0.306 0.418,-0.301C0.439,-0.295 0.458,-0.287 0.474,-0.278C0.49,-0.268 0.503,-0.256 0.512,-0.241C0.522,-0.226 0.526,-0.207 0.526,-0.185C0.526,-0.151 0.519,-0.121 0.505,-0.096C0.491,-0.071 0.472,-0.05 0.448,-0.033C0.423,-0.016 0.394,-0.004 0.36,0.005C0.326,0.013 0.289,0.017 0.25,0.017C0.21,0.017 0.178,0.012 0.152,0.001C0.125,-0.009 0.105,-0.023 0.09,-0.039C0.074,-0.056 0.064,-0.075 0.06,-0.096C0.055,-0.117 0.054,-0.138 0.058,-0.159L0.206,-0.158Z" style="fill:rgb(53,35,83);fill-rule:nonzero;"></path> </g> <g transform="matrix(124,0,0,124,286.145,0)"> <path d="M0.685,-0.296C0.685,-0.269 0.681,-0.242 0.674,-0.216C0.667,-0.19 0.657,-0.165 0.644,-0.142C0.631,-0.119 0.615,-0.098 0.596,-0.078C0.577,-0.059 0.556,-0.042 0.532,-0.028C0.508,-0.014 0.483,-0.003 0.455,0.004C0.427,0.012 0.397,0.016 0.366,0.016C0.335,0.016 0.308,0.012 0.285,0.003C0.263,-0.005 0.243,-0.016 0.227,-0.03L0.191,0.173L0.041,0.173L0.161,-0.506L0.313,-0.506L0.308,-0.48C0.328,-0.493 0.351,-0.503 0.375,-0.51C0.4,-0.518 0.427,-0.522 0.455,-0.522C0.491,-0.522 0.524,-0.517 0.552,-0.505C0.58,-0.493 0.605,-0.477 0.624,-0.457C0.644,-0.436 0.659,-0.413 0.669,-0.385C0.679,-0.358 0.685,-0.328 0.685,-0.296ZM0.531,-0.277C0.531,-0.294 0.528,-0.31 0.523,-0.325C0.517,-0.339 0.51,-0.351 0.5,-0.362C0.49,-0.372 0.478,-0.38 0.464,-0.385C0.45,-0.391 0.435,-0.394 0.419,-0.394C0.398,-0.394 0.377,-0.39 0.358,-0.382C0.338,-0.374 0.321,-0.362 0.306,-0.348C0.291,-0.333 0.279,-0.316 0.27,-0.296C0.261,-0.276 0.257,-0.254 0.257,-0.23C0.257,-0.212 0.26,-0.197 0.265,-0.182C0.271,-0.168 0.278,-0.156 0.289,-0.146C0.299,-0.135 0.311,-0.128 0.324,-0.122C0.338,-0.117 0.353,-0.114 0.37,-0.114C0.391,-0.114 0.412,-0.118 0.431,-0.126C0.451,-0.134 0.468,-0.145 0.483,-0.159C0.497,-0.174 0.509,-0.191 0.518,-0.211C0.527,-0.231 0.531,-0.253 0.531,-0.277Z" style="fill:rgb(53,35,83);fill-rule:nonzero;"></path> </g> <g transform="matrix(124,0,0,124,370.668,0)"> <path d="M0.086,-0.213C0.086,-0.241 0.09,-0.267 0.098,-0.293C0.106,-0.319 0.117,-0.344 0.131,-0.367C0.146,-0.39 0.163,-0.411 0.183,-0.43C0.203,-0.449 0.225,-0.465 0.25,-0.479C0.274,-0.493 0.301,-0.503 0.329,-0.511C0.357,-0.519 0.387,-0.522 0.418,-0.522C0.455,-0.522 0.489,-0.516 0.519,-0.504C0.549,-0.492 0.574,-0.476 0.595,-0.455C0.616,-0.435 0.632,-0.41 0.643,-0.382C0.654,-0.354 0.66,-0.324 0.66,-0.292C0.66,-0.265 0.656,-0.238 0.648,-0.212C0.64,-0.186 0.629,-0.161 0.615,-0.138C0.6,-0.115 0.583,-0.095 0.563,-0.076C0.543,-0.057 0.52,-0.041 0.496,-0.027C0.471,-0.013 0.444,-0.003 0.415,0.005C0.386,0.012 0.356,0.016 0.325,0.016C0.289,0.016 0.256,0.01 0.226,-0.002C0.197,-0.014 0.172,-0.03 0.151,-0.051C0.13,-0.071 0.115,-0.096 0.103,-0.124C0.092,-0.152 0.086,-0.181 0.086,-0.213ZM0.239,-0.229C0.239,-0.212 0.241,-0.196 0.247,-0.182C0.252,-0.167 0.26,-0.155 0.27,-0.145C0.279,-0.135 0.291,-0.127 0.304,-0.122C0.318,-0.116 0.333,-0.113 0.349,-0.113C0.369,-0.113 0.389,-0.117 0.409,-0.125C0.428,-0.134 0.445,-0.145 0.459,-0.159C0.474,-0.174 0.486,-0.191 0.494,-0.211C0.503,-0.231 0.507,-0.253 0.507,-0.277C0.507,-0.295 0.505,-0.31 0.499,-0.324C0.494,-0.339 0.486,-0.351 0.477,-0.361C0.467,-0.371 0.456,-0.379 0.442,-0.384C0.429,-0.39 0.414,-0.393 0.397,-0.393C0.377,-0.393 0.357,-0.389 0.338,-0.38C0.319,-0.372 0.302,-0.361 0.287,-0.347C0.272,-0.332 0.261,-0.315 0.252,-0.295C0.243,-0.275 0.239,-0.253 0.239,-0.229Z" style="fill:rgb(53,35,83);fill-rule:nonzero;"></path> </g> <g transform="matrix(124,0,0,124,452.104,0)"> <path d="M0.482,-0.375L0.418,-0.375C0.377,-0.375 0.342,-0.363 0.315,-0.34C0.288,-0.317 0.27,-0.282 0.261,-0.235L0.22,-0L0.069,-0L0.158,-0.506L0.307,-0.506L0.302,-0.471C0.319,-0.481 0.339,-0.49 0.361,-0.496C0.382,-0.503 0.406,-0.506 0.433,-0.506L0.505,-0.506L0.482,-0.375Z" style="fill:rgb(53,35,83);fill-rule:nonzero;"></path> </g> <g transform="matrix(124,0,0,124,507.02,0)"> <path d="M0.257,-0.646L0.366,-0.647L0.341,-0.506L0.488,-0.506L0.465,-0.377L0.318,-0.377L0.287,-0.199C0.284,-0.184 0.284,-0.171 0.285,-0.16C0.287,-0.15 0.291,-0.142 0.296,-0.136C0.302,-0.13 0.308,-0.126 0.317,-0.124C0.325,-0.121 0.335,-0.12 0.345,-0.12L0.429,-0.12L0.407,0.003L0.309,0.003C0.28,0.003 0.254,0.001 0.229,-0.004C0.205,-0.009 0.185,-0.019 0.168,-0.033C0.152,-0.048 0.141,-0.068 0.135,-0.094C0.128,-0.121 0.129,-0.155 0.136,-0.198L0.168,-0.377L0.087,-0.377L0.108,-0.492L0.189,-0.521L0.257,-0.646Z" style="fill:rgb(53,35,83);fill-rule:nonzero;"></path> </g> <g transform="matrix(124,0,0,124,562.844,0)"> <path d="M0.085,-0.21C0.085,-0.238 0.089,-0.265 0.096,-0.291C0.103,-0.317 0.114,-0.342 0.127,-0.365C0.141,-0.388 0.157,-0.409 0.176,-0.428C0.195,-0.448 0.217,-0.464 0.24,-0.478C0.264,-0.492 0.29,-0.503 0.319,-0.511C0.347,-0.519 0.376,-0.522 0.408,-0.522C0.44,-0.522 0.467,-0.518 0.491,-0.508C0.515,-0.498 0.535,-0.486 0.551,-0.472L0.561,-0.506L0.699,-0.506L0.61,-0L0.468,-0L0.471,-0.031C0.45,-0.017 0.427,-0.006 0.4,0.003C0.374,0.012 0.346,0.016 0.315,0.016C0.279,0.016 0.247,0.01 0.218,-0.001C0.19,-0.013 0.165,-0.029 0.146,-0.05C0.126,-0.07 0.111,-0.094 0.101,-0.121C0.091,-0.149 0.085,-0.178 0.085,-0.21ZM0.238,-0.229C0.238,-0.212 0.241,-0.196 0.247,-0.182C0.253,-0.167 0.26,-0.155 0.27,-0.145C0.28,-0.135 0.292,-0.127 0.306,-0.121C0.32,-0.116 0.335,-0.113 0.352,-0.113C0.373,-0.113 0.393,-0.117 0.413,-0.125C0.432,-0.133 0.449,-0.144 0.464,-0.158C0.479,-0.173 0.491,-0.19 0.5,-0.21C0.509,-0.23 0.514,-0.252 0.514,-0.276C0.514,-0.294 0.511,-0.31 0.505,-0.324C0.499,-0.338 0.492,-0.35 0.482,-0.361C0.472,-0.371 0.46,-0.379 0.446,-0.384C0.432,-0.39 0.417,-0.393 0.4,-0.393C0.379,-0.393 0.358,-0.389 0.339,-0.381C0.319,-0.373 0.302,-0.361 0.287,-0.347C0.272,-0.332 0.26,-0.315 0.251,-0.295C0.243,-0.275 0.238,-0.253 0.238,-0.229Z" style="fill:rgb(53,35,83);fill-rule:nonzero;"></path> </g> <g transform="matrix(124,0,0,124,648.154,0)"> <path d="M0.257,-0.646L0.366,-0.647L0.341,-0.506L0.488,-0.506L0.465,-0.377L0.318,-0.377L0.287,-0.199C0.284,-0.184 0.284,-0.171 0.285,-0.16C0.287,-0.15 0.291,-0.142 0.296,-0.136C0.302,-0.13 0.308,-0.126 0.317,-0.124C0.325,-0.121 0.335,-0.12 0.345,-0.12L0.429,-0.12L0.407,0.003L0.309,0.003C0.28,0.003 0.254,0.001 0.229,-0.004C0.205,-0.009 0.185,-0.019 0.168,-0.033C0.152,-0.048 0.141,-0.068 0.135,-0.094C0.128,-0.121 0.129,-0.155 0.136,-0.198L0.168,-0.377L0.087,-0.377L0.108,-0.492L0.189,-0.521L0.257,-0.646Z" style="fill:rgb(53,35,83);fill-rule:nonzero;"></path> </g> <g transform="matrix(124,0,0,124,703.979,0)"> <path d="M0.16,-0.506L0.312,-0.506L0.223,-0L0.071,-0L0.16,-0.506ZM0.17,-0.632C0.17,-0.644 0.173,-0.655 0.178,-0.667C0.183,-0.678 0.191,-0.687 0.2,-0.696C0.209,-0.704 0.22,-0.71 0.233,-0.715C0.246,-0.72 0.26,-0.723 0.275,-0.723C0.287,-0.723 0.298,-0.721 0.308,-0.717C0.317,-0.714 0.326,-0.709 0.332,-0.702C0.339,-0.696 0.344,-0.689 0.347,-0.68C0.351,-0.672 0.353,-0.663 0.353,-0.654C0.353,-0.641 0.35,-0.63 0.344,-0.619C0.339,-0.608 0.332,-0.598 0.322,-0.59C0.313,-0.582 0.302,-0.575 0.289,-0.57C0.276,-0.565 0.262,-0.563 0.247,-0.563C0.235,-0.563 0.224,-0.565 0.214,-0.568C0.205,-0.572 0.197,-0.577 0.19,-0.583C0.184,-0.59 0.178,-0.597 0.175,-0.605C0.172,-0.614 0.17,-0.622 0.17,-0.632Z" style="fill:rgb(53,35,83);fill-rule:nonzero;"></path> </g> <g transform="matrix(124,0,0,124,741.881,0)"> <path d="M0.086,-0.213C0.086,-0.241 0.09,-0.267 0.098,-0.293C0.106,-0.319 0.117,-0.344 0.131,-0.367C0.146,-0.39 0.163,-0.411 0.183,-0.43C0.203,-0.449 0.225,-0.465 0.25,-0.479C0.274,-0.493 0.301,-0.503 0.329,-0.511C0.357,-0.519 0.387,-0.522 0.418,-0.522C0.455,-0.522 0.489,-0.516 0.519,-0.504C0.549,-0.492 0.574,-0.476 0.595,-0.455C0.616,-0.435 0.632,-0.41 0.643,-0.382C0.654,-0.354 0.66,-0.324 0.66,-0.292C0.66,-0.265 0.656,-0.238 0.648,-0.212C0.64,-0.186 0.629,-0.161 0.615,-0.138C0.6,-0.115 0.583,-0.095 0.563,-0.076C0.543,-0.057 0.52,-0.041 0.496,-0.027C0.471,-0.013 0.444,-0.003 0.415,0.005C0.386,0.012 0.356,0.016 0.325,0.016C0.289,0.016 0.256,0.01 0.226,-0.002C0.197,-0.014 0.172,-0.03 0.151,-0.051C0.13,-0.071 0.115,-0.096 0.103,-0.124C0.092,-0.152 0.086,-0.181 0.086,-0.213ZM0.239,-0.229C0.239,-0.212 0.241,-0.196 0.247,-0.182C0.252,-0.167 0.26,-0.155 0.27,-0.145C0.279,-0.135 0.291,-0.127 0.304,-0.122C0.318,-0.116 0.333,-0.113 0.349,-0.113C0.369,-0.113 0.389,-0.117 0.409,-0.125C0.428,-0.134 0.445,-0.145 0.459,-0.159C0.474,-0.174 0.486,-0.191 0.494,-0.211C0.503,-0.231 0.507,-0.253 0.507,-0.277C0.507,-0.295 0.505,-0.31 0.499,-0.324C0.494,-0.339 0.486,-0.351 0.477,-0.361C0.467,-0.371 0.456,-0.379 0.442,-0.384C0.429,-0.39 0.414,-0.393 0.397,-0.393C0.377,-0.393 0.357,-0.389 0.338,-0.38C0.319,-0.372 0.302,-0.361 0.287,-0.347C0.272,-0.332 0.261,-0.315 0.252,-0.295C0.243,-0.275 0.239,-0.253 0.239,-0.229Z" style="fill:rgb(53,35,83);fill-rule:nonzero;"></path> </g> <g transform="matrix(124,0,0,124,823.316,0)"> <path d="M0.594,-0L0.442,-0L0.49,-0.268C0.494,-0.292 0.495,-0.311 0.493,-0.327C0.491,-0.343 0.486,-0.356 0.479,-0.365C0.472,-0.375 0.463,-0.382 0.451,-0.386C0.44,-0.39 0.427,-0.393 0.412,-0.393C0.394,-0.393 0.376,-0.389 0.36,-0.382C0.344,-0.375 0.329,-0.365 0.317,-0.353C0.304,-0.341 0.294,-0.326 0.285,-0.31C0.276,-0.293 0.27,-0.274 0.267,-0.254L0.222,-0L0.071,-0L0.16,-0.506L0.312,-0.506L0.308,-0.481C0.329,-0.493 0.353,-0.503 0.379,-0.511C0.404,-0.519 0.43,-0.522 0.456,-0.522C0.496,-0.522 0.529,-0.517 0.556,-0.505C0.583,-0.494 0.604,-0.477 0.619,-0.455C0.634,-0.434 0.643,-0.407 0.647,-0.376C0.65,-0.346 0.648,-0.311 0.642,-0.271L0.594,-0Z" style="fill:rgb(53,35,83);fill-rule:nonzero;"></path> </g> <g transform="matrix(124,0,0,124,903.965,0)"> <path d="M0.206,-0.158C0.205,-0.151 0.207,-0.144 0.209,-0.137C0.212,-0.131 0.217,-0.126 0.223,-0.121C0.229,-0.117 0.237,-0.113 0.246,-0.111C0.254,-0.108 0.264,-0.107 0.275,-0.107C0.307,-0.107 0.33,-0.111 0.344,-0.12C0.358,-0.128 0.365,-0.14 0.365,-0.155C0.365,-0.162 0.362,-0.168 0.357,-0.172C0.351,-0.177 0.343,-0.181 0.333,-0.184C0.322,-0.188 0.309,-0.191 0.293,-0.194C0.277,-0.198 0.26,-0.201 0.24,-0.206C0.227,-0.209 0.212,-0.212 0.197,-0.217C0.182,-0.221 0.167,-0.228 0.154,-0.237C0.14,-0.246 0.129,-0.258 0.12,-0.273C0.111,-0.288 0.107,-0.307 0.107,-0.33C0.107,-0.359 0.112,-0.385 0.123,-0.409C0.133,-0.433 0.149,-0.453 0.171,-0.47C0.192,-0.487 0.219,-0.5 0.251,-0.509C0.284,-0.518 0.322,-0.522 0.366,-0.522C0.398,-0.522 0.426,-0.518 0.449,-0.51C0.473,-0.502 0.493,-0.491 0.508,-0.476C0.523,-0.461 0.534,-0.443 0.54,-0.422C0.545,-0.401 0.546,-0.379 0.542,-0.354L0.39,-0.354C0.391,-0.367 0.387,-0.378 0.378,-0.386C0.369,-0.395 0.355,-0.4 0.335,-0.4C0.323,-0.4 0.312,-0.399 0.302,-0.396C0.293,-0.393 0.285,-0.39 0.279,-0.385C0.273,-0.381 0.268,-0.376 0.265,-0.371C0.262,-0.365 0.26,-0.359 0.26,-0.354C0.26,-0.342 0.268,-0.334 0.282,-0.329C0.297,-0.325 0.32,-0.32 0.352,-0.315C0.375,-0.311 0.397,-0.306 0.418,-0.301C0.439,-0.295 0.458,-0.287 0.474,-0.278C0.49,-0.268 0.503,-0.256 0.512,-0.241C0.522,-0.226 0.526,-0.207 0.526,-0.185C0.526,-0.151 0.519,-0.121 0.505,-0.096C0.491,-0.071 0.472,-0.05 0.448,-0.033C0.423,-0.016 0.394,-0.004 0.36,0.005C0.326,0.013 0.289,0.017 0.25,0.017C0.21,0.017 0.178,0.012 0.152,0.001C0.125,-0.009 0.105,-0.023 0.09,-0.039C0.074,-0.056 0.064,-0.075 0.06,-0.096C0.055,-0.117 0.054,-0.138 0.058,-0.159L0.206,-0.158Z" style="fill:rgb(53,35,83);fill-rule:nonzero;"></path> </g> <g transform="matrix(124,0,0,124,998.176,0)"> <path d="M0.187,-0.664L0.341,-0.664L0.247,-0.133L0.525,-0.133L0.502,-0L0.069,-0L0.187,-0.664Z" style="fill:rgb(53,35,83);fill-rule:nonzero;"></path> </g> <g transform="matrix(124,0,0,124,1064.6,0)"> <path d="M0.257,-0.646L0.366,-0.647L0.341,-0.506L0.488,-0.506L0.465,-0.377L0.318,-0.377L0.287,-0.199C0.284,-0.184 0.284,-0.171 0.285,-0.16C0.287,-0.15 0.291,-0.142 0.296,-0.136C0.302,-0.13 0.308,-0.126 0.317,-0.124C0.325,-0.121 0.335,-0.12 0.345,-0.12L0.429,-0.12L0.407,0.003L0.309,0.003C0.28,0.003 0.254,0.001 0.229,-0.004C0.205,-0.009 0.185,-0.019 0.168,-0.033C0.152,-0.048 0.141,-0.068 0.135,-0.094C0.128,-0.121 0.129,-0.155 0.136,-0.198L0.168,-0.377L0.087,-0.377L0.108,-0.492L0.189,-0.521L0.257,-0.646Z" style="fill:rgb(53,35,83);fill-rule:nonzero;"></path> </g> <g transform="matrix(124,0,0,124,1120.42,0)"> <path d="M0.085,-0.21C0.085,-0.251 0.093,-0.291 0.109,-0.329C0.125,-0.366 0.146,-0.4 0.175,-0.428C0.203,-0.457 0.236,-0.48 0.276,-0.497C0.315,-0.514 0.358,-0.523 0.405,-0.523C0.435,-0.523 0.462,-0.519 0.485,-0.51C0.508,-0.501 0.527,-0.49 0.543,-0.477L0.581,-0.688L0.731,-0.688L0.61,-0L0.458,-0L0.462,-0.027C0.442,-0.014 0.419,-0.003 0.395,0.005C0.37,0.013 0.343,0.017 0.315,0.017C0.279,0.017 0.247,0.011 0.218,-0.001C0.19,-0.013 0.165,-0.029 0.146,-0.049C0.126,-0.07 0.111,-0.094 0.101,-0.121C0.091,-0.149 0.085,-0.178 0.085,-0.21ZM0.239,-0.229C0.239,-0.212 0.242,-0.196 0.247,-0.182C0.253,-0.167 0.26,-0.155 0.271,-0.145C0.281,-0.135 0.292,-0.127 0.306,-0.121C0.32,-0.116 0.335,-0.113 0.352,-0.113C0.373,-0.113 0.393,-0.117 0.413,-0.125C0.432,-0.133 0.449,-0.144 0.464,-0.158C0.479,-0.173 0.491,-0.19 0.5,-0.21C0.509,-0.23 0.514,-0.252 0.514,-0.276C0.514,-0.294 0.511,-0.31 0.505,-0.324C0.5,-0.338 0.492,-0.35 0.482,-0.361C0.472,-0.371 0.46,-0.379 0.446,-0.384C0.432,-0.39 0.417,-0.393 0.4,-0.393C0.379,-0.393 0.358,-0.389 0.339,-0.381C0.32,-0.373 0.303,-0.361 0.288,-0.347C0.273,-0.332 0.261,-0.315 0.252,-0.295C0.243,-0.275 0.239,-0.253 0.239,-0.229Z" style="fill:rgb(53,35,83);fill-rule:nonzero;"></path> </g> </g> </g> <g transform="matrix(1,0,0,1,1803.21,141.02)"> <g transform="matrix(124,0,0,124,0,0)"> <path d="M0.069,-0.044C0.069,-0.054 0.071,-0.064 0.076,-0.073C0.08,-0.082 0.086,-0.09 0.093,-0.097C0.1,-0.104 0.109,-0.11 0.119,-0.114C0.129,-0.118 0.14,-0.121 0.151,-0.121C0.16,-0.121 0.169,-0.119 0.176,-0.116C0.183,-0.113 0.19,-0.109 0.195,-0.104C0.2,-0.099 0.203,-0.093 0.206,-0.086C0.209,-0.079 0.21,-0.071 0.21,-0.063C0.21,-0.053 0.208,-0.044 0.204,-0.035C0.199,-0.026 0.194,-0.017 0.186,-0.01C0.179,-0.003 0.17,0.002 0.16,0.006C0.15,0.01 0.14,0.012 0.128,0.012C0.118,0.012 0.11,0.011 0.103,0.008C0.096,0.005 0.09,0.001 0.085,-0.004C0.08,-0.01 0.076,-0.016 0.073,-0.022C0.071,-0.029 0.069,-0.036 0.069,-0.044Z" style="fill:rgb(53,35,83);fill-rule:nonzero;"></path> </g> </g> </g> </svg> 