<?xml version="1.0" encoding="UTF-8" standalone="no"?> <svg xmlns="http://www.w3.org/2000/svg" xmlns:xlink="http://www.w3.org/1999/xlink" xmlns:serif="http://www.serif.com/" width="100%" height="100%" viewBox="0 0 5959 1230" xml:space="preserve" style="fill-rule:evenodd;clip-rule:evenodd;stroke-linejoin:bevel;stroke-miterlimit:1.41421;"> <g transform="matrix(1,0,0,1,62.5,62.5)"> <path d="M102.149,212.292L69.608,199.275L69.608,1080L102.149,1093.01L102.149,212.292ZM264.866,160.221L199.778,199.275L199.778,1053.96L264.866,1014.91L264.866,160.221ZM5828.81,519.625L5753.69,594.753C5718.43,563.099 5685.77,547.272 5655.72,547.272C5635.28,547.272 5618.36,552.981 5604.93,564.401C5591.51,575.82 5584.8,589.944 5584.8,606.773C5584.8,623.201 5590.41,637.024 5601.63,648.244C5612.85,659.863 5636.29,675.49 5671.95,695.123C5722.83,723.572 5756.89,749.616 5774.12,773.256C5792.55,796.496 5801.77,826.747 5801.77,864.011C5801.77,917.702 5783.14,960.776 5745.87,993.231C5707.81,1025.29 5658.32,1041.31 5597.42,1041.31C5514.48,1041.31 5445.76,1003.85 5391.27,928.921L5478.42,868.218C5514.08,911.091 5552.14,932.527 5592.61,932.527C5615.45,932.527 5633.78,926.517 5647.61,914.497C5661.43,902.476 5668.34,886.85 5668.34,867.617C5668.34,850.788 5662.53,837.165 5650.91,826.747C5645.3,821.539 5635.48,814.326 5621.46,805.111C5607.44,795.895 5588.4,784.876 5564.36,772.054C5521.89,748.414 5492.44,725.375 5476.01,702.937C5459.59,679.296 5451.37,650.447 5451.37,616.389C5451.37,565.102 5470.2,522.63 5507.87,488.972C5545.53,455.315 5593.41,438.487 5651.51,438.487C5715.62,438.487 5774.72,465.533 5828.81,519.625ZM4335.99,734.791C4335.99,821.338 4305.94,894.062 4245.84,952.962C4186.14,1011.86 4112.41,1041.31 4024.66,1041.31C3932.91,1041.31 3857.98,1013.47 3799.88,957.77C3741.38,901.675 3712.13,830.754 3712.13,745.008C3712.13,657.259 3742.38,584.335 3802.89,526.236C3863.79,467.736 3939.92,438.487 4031.27,438.487C4121.03,438.487 4194.15,466.134 4250.65,521.428C4307.54,575.92 4335.99,647.042 4335.99,734.791ZM4946.99,457.118L4906.72,786.479C4903.52,814.527 4899.51,838.968 4894.7,859.804C4889.9,880.639 4884.69,898.069 4879.08,912.093C4867.86,938.938 4849.03,962.779 4822.58,983.614C4777.7,1018.87 4718.6,1036.5 4645.28,1036.5C4575.56,1036.5 4519.86,1018.67 4478.19,983.013C4436.52,946.952 4415.69,898.67 4415.69,838.167C4415.69,828.951 4416.19,818.133 4417.19,805.712C4418.19,793.29 4419.69,779.066 4421.7,763.039L4458.96,457.118L4591.79,457.118L4552.72,775.059C4551.12,788.683 4549.92,800.603 4549.11,810.82C4548.31,821.038 4547.91,829.552 4547.91,836.364C4547.91,896.065 4582.97,925.916 4653.09,925.916C4691.16,925.916 4719.2,916.099 4737.23,896.466C4755.27,876.833 4767.29,842.374 4773.3,793.09L4814.77,457.118L4946.99,457.118ZM2035.88,457.118L1995.61,786.479C1992.4,814.527 1988.4,838.968 1983.59,859.804C1978.78,880.639 1973.57,898.069 1967.96,912.093C1956.74,938.938 1937.91,962.779 1911.47,983.614C1866.59,1018.87 1807.49,1036.5 1734.16,1036.5C1664.44,1036.5 1608.75,1018.67 1567.08,983.013C1525.41,946.952 1504.57,898.67 1504.57,838.167C1504.57,828.951 1505.07,818.133 1506.08,805.712C1507.08,793.29 1508.58,779.066 1510.58,763.039L1547.85,457.118L1680.67,457.118L1641.61,775.059C1640,788.683 1638.8,800.603 1638,810.82C1637.2,821.038 1636.8,829.552 1636.8,836.364C1636.8,896.065 1671.86,925.916 1741.98,925.916C1780.04,925.916 1808.09,916.099 1826.12,896.466C1844.15,876.833 1856.17,842.374 1862.18,793.09L1903.65,457.118L2035.88,457.118ZM1170.88,262.909L1097.62,262.909L842.881,566.5L1024.22,350.385C1104.2,393.672 1158.57,478.326 1158.57,575.579C1158.57,672.833 1104.2,757.487 1024.22,800.774L1097.62,888.249L1170.88,888.249L1170.88,1023.48L1034.57,1023.48L808.945,754.596L808.945,1023.48L673.715,1023.48L673.715,127.679L808.945,127.679L808.945,396.562L1034.57,127.679L1170.88,127.679L1170.88,262.909ZM1354.56,1023.28L1221.73,1023.28L1291.45,457.118L1424.28,457.118L1354.56,1023.28ZM2796.29,1023.28L2663.47,1023.28L2733.18,457.118L2866.01,457.118L2796.29,1023.28ZM5134.87,1023.28L5002.05,1023.28L5071.77,457.118L5204.59,457.118L5198.58,505.801C5243.46,463.329 5288.73,442.093 5334.41,442.093C5374.48,442.093 5410.94,456.718 5443.8,485.967L5359.05,595.354C5334.61,574.518 5310.17,564.1 5285.73,564.1C5268.9,564.1 5254.07,567.406 5241.25,574.017C5228.43,580.628 5217.31,591.046 5207.9,605.27C5198.48,619.495 5190.67,637.826 5184.46,660.264C5178.25,682.702 5173.34,709.548 5169.73,740.801L5134.87,1023.28ZM3824.76,223.32L3612.6,223.32L3514.03,1023.28L3376.4,1023.28L3474.97,223.32L3253.19,223.32L3268.82,95.302L3840.39,95.302L3824.76,223.32ZM2223.76,1023.28L2090.93,1023.28L2215.94,8.154L2348.77,8.154L2266.43,677.093L2504.43,457.118L2681.74,457.118L2384.83,715.558L2623.44,1023.28L2462.96,1023.28L2256.81,754.024L2223.76,1023.28ZM167.237,342.463L128.187,348.971L128.187,962.842L167.237,956.333L167.237,342.463ZM50.083,316.429L37.066,322.938L37.066,936.804L50.083,930.296L50.083,316.429ZM4201.96,728.18C4201.96,673.687 4186.14,630.614 4154.48,598.96C4122.83,566.104 4081.36,549.676 4030.07,549.676C3976.78,549.676 3932.71,567.907 3897.85,604.369C3862.99,641.232 3845.56,687.51 3845.56,743.205C3845.56,799.301 3861.99,844.377 3894.84,878.435C3927.7,913.295 3970.17,930.724 4022.26,930.724C4074.35,930.724 4117.22,911.692 4150.88,873.627C4184.94,835.963 4201.96,787.481 4201.96,728.18ZM395.037,199.275L290.899,251.342L290.899,923.788L395.037,871.721L395.037,199.275ZM17.541,283.888L4.52,290.396L4.52,904.263L17.541,897.754L17.541,283.888ZM596.803,814.338L595.803,814.338C566.27,791.196 525.12,776.833 479.649,776.833C459.003,776.833 439.249,779.792 421.07,785.192L421.07,291.513C439.249,284.483 459.003,280.633 479.649,280.633C525.641,280.633 567.199,299.754 596.803,330.471L596.803,814.338ZM1465.75,187.86C1465.75,207.093 1458.74,223.721 1444.71,237.745C1430.69,251.769 1413.86,258.781 1394.23,258.781C1374.59,258.781 1357.56,251.568 1343.14,237.144C1329.11,221.918 1322.1,204.488 1322.1,184.855C1322.1,165.221 1328.91,148.593 1342.54,134.97C1356.56,120.946 1373.19,113.934 1392.42,113.934C1412.06,113.934 1429.09,121.347 1443.51,136.172C1458.33,150.597 1465.75,167.826 1465.75,187.86ZM2907.48,187.86C2907.48,207.093 2900.47,223.721 2886.45,237.745C2872.42,251.769 2855.59,258.781 2835.96,258.781C2816.33,258.781 2799.3,251.568 2784.87,237.144C2770.85,221.918 2763.84,204.488 2763.84,184.855C2763.84,165.221 2770.65,148.593 2784.27,134.97C2798.3,120.946 2814.92,113.934 2834.16,113.934C2853.79,113.934 2870.82,121.347 2885.24,136.172C2900.07,150.597 2907.48,167.826 2907.48,187.86Z" style="fill:white;stroke:white;stroke-width:62.5px;"></path> </g> <g transform="matrix(4.16667,0,0,4.16667,50.1992,159.846)"> <g transform="matrix(1,0,0,1,0,-27)"> <path d="M251.248,34.28L283.963,34.28L283.963,66.735L266.382,66.735L203.415,141.776L266.382,216.817L283.963,216.817L283.963,249.272L251.248,249.272L197.099,184.74L197.099,249.272L164.644,249.272L164.644,34.28L197.099,34.28L197.099,98.812L251.248,34.28Z" style="fill:rgb(53,35,83);"></path> </g> <g transform="matrix(1,0,0,1,0,-27)"> <path d="M198.099,141.776L164.644,205.699L164.644,77.853L198.099,141.776Z" style="fill:rgb(252,113,0);"></path> </g> <g transform="matrix(1,0,0,1,0,-27)"> <path d="M248.766,87.729C267.96,98.118 281.009,118.435 281.009,141.776C281.009,165.117 267.96,185.434 248.766,195.823L203.415,141.776L248.766,87.729Z" style="fill:rgb(255,216,0);"></path> </g> <path d="M146.185,172.078L145.945,172.078C138.857,166.524 128.981,163.077 118.068,163.077C113.113,163.077 108.372,163.787 104.009,165.083L104.009,46.6C108.372,44.913 113.113,43.989 118.068,43.989C129.106,43.989 139.08,48.578 146.185,55.95L146.185,172.078Z" style="fill:rgb(252,113,0);"></path> <path d="M97.761,24.463L72.768,36.959L72.768,198.346L97.761,185.85L97.761,24.463Z" style="fill:rgb(252,113,0);"></path> <path d="M66.52,15.09L50.899,24.463L50.899,229.587L66.52,220.215L66.52,15.09Z" style="fill:rgb(252,113,0);"></path> <path d="M43.089,58.828L33.717,60.39L33.717,207.719L43.089,206.157L43.089,58.828Z" style="fill:rgb(255,216,0);"></path> <path d="M27.468,27.587L19.658,24.463L19.658,235.836L27.468,238.96L27.468,27.587Z" style="fill:rgb(255,216,0);"></path> <path d="M14.972,52.58L11.848,54.142L11.848,201.47L14.972,199.908L14.972,52.58Z" style="fill:rgb(255,216,0);"></path> <path d="M7.162,44.77L4.037,46.332L4.037,193.66L7.162,192.098L7.162,44.77Z" style="fill:rgb(255,216,0);"></path> </g> <g transform="matrix(9.92657,0,0,9.92657,-2732.6,-314.063)"> <g transform="matrix(124,0,0,124,399.266,141.02)"> <path d="M0.242,-0.679C0.242,-0.663 0.236,-0.65 0.225,-0.638C0.213,-0.627 0.2,-0.621 0.184,-0.621C0.168,-0.621 0.154,-0.627 0.142,-0.639C0.131,-0.651 0.125,-0.665 0.125,-0.681C0.125,-0.697 0.131,-0.711 0.142,-0.722C0.153,-0.733 0.167,-0.739 0.182,-0.739C0.198,-0.739 0.212,-0.733 0.224,-0.721C0.236,-0.709 0.242,-0.695 0.242,-0.679ZM0.208,-0.46L0.151,-0L0.043,-0L0.1,-0.46L0.208,-0.46Z" style="fill:rgb(53,35,83);fill-rule:nonzero;"></path> </g> <g transform="matrix(124,0,0,124,425.095,141.02)"> <path d="M0.497,-0.46L0.464,-0.192C0.461,-0.17 0.458,-0.15 0.454,-0.133C0.45,-0.116 0.446,-0.102 0.441,-0.09C0.432,-0.069 0.417,-0.049 0.396,-0.032C0.359,-0.004 0.311,0.011 0.251,0.011C0.195,0.011 0.15,-0.004 0.116,-0.033C0.082,-0.062 0.065,-0.101 0.065,-0.15C0.065,-0.158 0.065,-0.167 0.066,-0.177C0.067,-0.187 0.068,-0.198 0.07,-0.211L0.1,-0.46L0.208,-0.46L0.176,-0.202C0.175,-0.191 0.174,-0.181 0.173,-0.173C0.173,-0.164 0.172,-0.157 0.172,-0.152C0.172,-0.103 0.201,-0.079 0.258,-0.079C0.289,-0.079 0.312,-0.087 0.326,-0.103C0.341,-0.119 0.351,-0.147 0.355,-0.187L0.389,-0.46L0.497,-0.46Z" style="fill:rgb(53,35,83);fill-rule:nonzero;"></path> </g> <g transform="matrix(124,0,0,124,486.768,141.02)"> <path d="M0.253,-0.825L0.187,-0.281L0.38,-0.46L0.524,-0.46L0.283,-0.25L0.477,-0L0.346,-0L0.179,-0.219L0.152,-0L0.044,-0L0.146,-0.825L0.253,-0.825Z" style="fill:rgb(53,35,83);fill-rule:nonzero;"></path> </g> <g transform="matrix(124,0,0,124,544.506,141.02)"> <path d="M0.242,-0.679C0.242,-0.663 0.236,-0.65 0.225,-0.638C0.213,-0.627 0.2,-0.621 0.184,-0.621C0.168,-0.621 0.154,-0.627 0.142,-0.639C0.131,-0.651 0.125,-0.665 0.125,-0.681C0.125,-0.697 0.131,-0.711 0.142,-0.722C0.153,-0.733 0.167,-0.739 0.182,-0.739C0.198,-0.739 0.212,-0.733 0.224,-0.721C0.236,-0.709 0.242,-0.695 0.242,-0.679ZM0.208,-0.46L0.151,-0L0.043,-0L0.1,-0.46L0.208,-0.46Z" style="fill:rgb(53,35,83);fill-rule:nonzero;"></path> </g> <g transform="matrix(124,0,0,124,602.401,141.02)"> <path d="M0.348,-0.65L0.268,-0L0.156,-0L0.236,-0.65L0.056,-0.65L0.068,-0.754L0.533,-0.754L0.52,-0.65L0.348,-0.65Z" style="fill:rgb(53,35,83);fill-rule:nonzero;"></path> </g> <g transform="matrix(124,0,0,124,649.966,141.02)"> <path d="M0.552,-0.234C0.552,-0.164 0.527,-0.105 0.479,-0.057C0.43,-0.009 0.37,0.015 0.299,0.015C0.224,0.015 0.163,-0.008 0.116,-0.053C0.069,-0.099 0.045,-0.156 0.045,-0.226C0.045,-0.297 0.069,-0.357 0.119,-0.404C0.168,-0.451 0.23,-0.475 0.304,-0.475C0.377,-0.475 0.437,-0.453 0.482,-0.408C0.529,-0.363 0.552,-0.306 0.552,-0.234ZM0.443,-0.24C0.443,-0.284 0.43,-0.319 0.404,-0.345C0.379,-0.371 0.345,-0.385 0.303,-0.385C0.26,-0.385 0.224,-0.37 0.196,-0.34C0.167,-0.31 0.153,-0.273 0.153,-0.228C0.153,-0.182 0.167,-0.145 0.193,-0.118C0.22,-0.089 0.255,-0.075 0.297,-0.075C0.339,-0.075 0.374,-0.091 0.401,-0.122C0.429,-0.152 0.443,-0.192 0.443,-0.24Z" style="fill:rgb(53,35,83);fill-rule:nonzero;"></path> </g> <g transform="matrix(124,0,0,124,718.36,141.02)"> <path d="M0.497,-0.46L0.464,-0.192C0.461,-0.17 0.458,-0.15 0.454,-0.133C0.45,-0.116 0.446,-0.102 0.441,-0.09C0.432,-0.069 0.417,-0.049 0.396,-0.032C0.359,-0.004 0.311,0.011 0.251,0.011C0.195,0.011 0.15,-0.004 0.116,-0.033C0.082,-0.062 0.065,-0.101 0.065,-0.15C0.065,-0.158 0.065,-0.167 0.066,-0.177C0.067,-0.187 0.068,-0.198 0.07,-0.211L0.1,-0.46L0.208,-0.46L0.176,-0.202C0.175,-0.191 0.174,-0.181 0.173,-0.173C0.173,-0.164 0.172,-0.157 0.172,-0.152C0.172,-0.103 0.201,-0.079 0.258,-0.079C0.289,-0.079 0.312,-0.087 0.326,-0.103C0.341,-0.119 0.351,-0.147 0.355,-0.187L0.389,-0.46L0.497,-0.46Z" style="fill:rgb(53,35,83);fill-rule:nonzero;"></path> </g> <g transform="matrix(124,0,0,124,780.033,141.02)"> <path d="M0.208,-0.46L0.204,-0.42C0.24,-0.455 0.277,-0.472 0.314,-0.472C0.347,-0.472 0.376,-0.46 0.403,-0.437L0.334,-0.348C0.314,-0.365 0.294,-0.373 0.274,-0.373C0.261,-0.373 0.249,-0.37 0.238,-0.365C0.228,-0.36 0.219,-0.351 0.211,-0.34C0.204,-0.328 0.197,-0.313 0.192,-0.295C0.187,-0.277 0.183,-0.255 0.18,-0.229L0.152,-0L0.044,-0L0.101,-0.46L0.208,-0.46Z" style="fill:rgb(53,35,83);fill-rule:nonzero;"></path> </g> <g transform="matrix(124,0,0,124,822.331,141.02)"> <path d="M0.375,-0.409L0.313,-0.348C0.285,-0.374 0.258,-0.387 0.234,-0.387C0.217,-0.387 0.204,-0.382 0.193,-0.373C0.182,-0.364 0.176,-0.352 0.176,-0.338C0.176,-0.325 0.181,-0.314 0.19,-0.305C0.199,-0.295 0.218,-0.283 0.247,-0.267C0.288,-0.243 0.316,-0.222 0.33,-0.203C0.345,-0.184 0.353,-0.16 0.353,-0.129C0.353,-0.086 0.337,-0.051 0.307,-0.024C0.276,0.002 0.236,0.015 0.187,0.015C0.119,0.015 0.063,-0.016 0.019,-0.077L0.09,-0.126C0.119,-0.091 0.15,-0.074 0.183,-0.074C0.201,-0.074 0.216,-0.079 0.227,-0.088C0.239,-0.098 0.244,-0.111 0.244,-0.126C0.244,-0.14 0.239,-0.151 0.23,-0.16C0.225,-0.164 0.217,-0.17 0.206,-0.177C0.195,-0.185 0.179,-0.194 0.16,-0.204C0.125,-0.223 0.101,-0.242 0.088,-0.26C0.075,-0.279 0.068,-0.303 0.068,-0.331C0.068,-0.372 0.083,-0.407 0.114,-0.434C0.144,-0.461 0.183,-0.475 0.23,-0.475C0.283,-0.475 0.331,-0.453 0.375,-0.409Z" style="fill:rgb(53,35,83);fill-rule:nonzero;"></path> </g> </g> </svg> 